<svg xmlns="http://www.w3.org/2000/svg" xmlns:xlink="http://www.w3.org/1999/xlink" width="1920" zoomAndPan="magnify" viewBox="0 0 1440 374.999991" height="500" preserveAspectRatio="xMidYMid meet" version="1.0"><defs><g/></defs><g fill="#a6d1f4" fill-opacity="1"><g transform="translate(69.902356, 253.902017)"><g><path d="M 56.296875 0 L 11.828125 0 L 11.828125 -106.015625 L 133.65625 -106.015625 L 133.65625 -79.796875 L 56.296875 -79.796875 L 56.296875 -63.171875 L 121.6875 -63.171875 L 121.6875 -42.78125 L 56.296875 -42.78125 Z M 56.296875 0 "/></g></g></g><g fill="#a6d1f4" fill-opacity="1"><g transform="translate(209.46744, 253.902017)"><g><path d="M 178.0625 0 L 132.984375 0 L 123.015625 -17.359375 L 56.15625 -17.359375 L 46.171875 0 L 1.109375 0 L 68.9375 -105.953125 L 110.234375 -105.953125 Z M 108.015625 -43.59375 L 89.625 -75.734375 L 71.15625 -43.59375 Z M 108.015625 -43.59375 "/></g></g></g><g fill="#a6d1f4" fill-opacity="1"><g transform="translate(388.633841, 253.902017)"><g><path d="M 80.15625 2.296875 C 53.957031 2.296875 34.675781 -3.097656 22.3125 -13.890625 C 11.375 -23.398438 5.90625 -36.40625 5.90625 -52.90625 C 5.90625 -69.40625 11.375 -82.429688 22.3125 -91.984375 C 34.675781 -102.722656 53.957031 -108.09375 80.15625 -108.09375 C 95.53125 -108.09375 108.238281 -106.332031 118.28125 -102.8125 C 128.332031 -99.289062 136.140625 -94.472656 141.703125 -88.359375 C 147.273438 -82.253906 150.972656 -75.257812 152.796875 -67.375 L 106.015625 -67.375 C 101.335938 -75.601562 92.71875 -79.71875 80.15625 -79.71875 C 69.425781 -79.71875 61.523438 -76.613281 56.453125 -70.40625 C 52.410156 -65.476562 50.390625 -59.644531 50.390625 -52.90625 C 50.390625 -46.15625 52.410156 -40.316406 56.453125 -35.390625 C 61.523438 -29.179688 69.425781 -26.078125 80.15625 -26.078125 C 92.71875 -26.078125 101.335938 -30.21875 106.015625 -38.5 L 152.796875 -38.5 C 150.972656 -30.5625 147.273438 -23.539062 141.703125 -17.4375 C 136.140625 -11.332031 128.332031 -6.515625 118.28125 -2.984375 C 108.238281 0.535156 95.53125 2.296875 80.15625 2.296875 Z M 80.15625 2.296875 "/></g></g></g><g fill="#a6d1f4" fill-opacity="1"><g transform="translate(547.334633, 253.902017)"><g><path d="M 139.484375 0 L 11.828125 0 L 11.828125 -106.015625 L 133.65625 -106.015625 L 133.65625 -79.796875 L 56.296875 -79.796875 L 56.296875 -63.171875 L 121.6875 -63.171875 L 121.6875 -42.78125 L 56.296875 -42.78125 L 56.296875 -26.234375 L 139.484375 -26.234375 Z M 139.484375 0 "/></g></g></g><g fill="#a6d1f4" fill-opacity="1"><g transform="translate(692.736478, 253.902017)"><g><path d="M 87.84375 0 L 11.828125 0 L 11.828125 -105.953125 L 89.46875 -105.953125 C 103.257812 -105.953125 114.613281 -105.320312 123.53125 -104.0625 C 132.445312 -102.8125 139.316406 -100.84375 144.140625 -98.15625 C 148.972656 -95.46875 152.25 -92.054688 153.96875 -87.921875 C 155.695312 -83.785156 156.5625 -78.835938 156.5625 -73.078125 C 156.414062 -68.535156 155.171875 -64.773438 152.828125 -61.796875 C 150.484375 -58.816406 147.75 -56.597656 144.625 -55.140625 C 141.5 -53.691406 138.753906 -52.96875 136.390625 -52.96875 C 138.703125 -52.96875 141.410156 -52.507812 144.515625 -51.59375 C 147.617188 -50.6875 150.632812 -49.367188 153.5625 -47.640625 C 156.5 -45.921875 158.9375 -43.832031 160.875 -41.375 C 162.820312 -38.914062 163.796875 -36.109375 163.796875 -32.953125 C 163.796875 -28.816406 163.316406 -25.023438 162.359375 -21.578125 C 161.398438 -18.128906 159.476562 -15.070312 156.59375 -12.40625 C 153.707031 -9.75 149.457031 -7.492188 143.84375 -5.640625 C 138.226562 -3.796875 130.878906 -2.394531 121.796875 -1.4375 C 112.710938 -0.476562 101.394531 0 87.84375 0 Z M 85.328125 -62.0625 C 91.835938 -62.0625 96.875 -62.378906 100.4375 -63.015625 C 104.007812 -63.660156 106.484375 -64.632812 107.859375 -65.9375 C 109.242188 -67.25 109.9375 -68.910156 109.9375 -70.921875 C 109.9375 -72.992188 109.242188 -74.679688 107.859375 -75.984375 C 106.484375 -77.296875 104.007812 -78.257812 100.4375 -78.875 C 96.875 -79.488281 91.835938 -79.796875 85.328125 -79.796875 L 56.296875 -79.796875 L 56.296875 -62.0625 Z M 85.328125 -26.15625 C 91.984375 -26.15625 97.378906 -26.328125 101.515625 -26.671875 C 105.648438 -27.015625 108.675781 -27.800781 110.59375 -29.03125 C 112.519531 -30.269531 113.484375 -32.265625 113.484375 -35.015625 C 113.484375 -37.773438 112.519531 -39.78125 110.59375 -41.03125 C 108.675781 -42.289062 105.648438 -43.082031 101.515625 -43.40625 C 97.378906 -43.726562 91.984375 -43.890625 85.328125 -43.890625 L 56.296875 -43.890625 L 56.296875 -26.15625 Z M 85.328125 -26.15625 "/></g></g></g><g fill="#a6d1f4" fill-opacity="1"><g transform="translate(862.445844, 253.902017)"><g><path d="M 80.15625 2.296875 C 53.957031 2.296875 34.675781 -3.097656 22.3125 -13.890625 C 11.375 -23.441406 5.90625 -36.46875 5.90625 -52.96875 C 5.90625 -69.425781 11.375 -82.429688 22.3125 -91.984375 C 34.675781 -102.773438 53.957031 -108.171875 80.15625 -108.171875 C 106.363281 -108.171875 125.648438 -102.773438 138.015625 -91.984375 C 148.953125 -82.429688 154.421875 -69.425781 154.421875 -52.96875 C 154.421875 -36.46875 148.953125 -23.441406 138.015625 -13.890625 C 125.648438 -3.097656 106.363281 2.296875 80.15625 2.296875 Z M 80.15625 -26.15625 C 90.894531 -26.15625 98.78125 -29.234375 103.8125 -35.390625 C 107.84375 -40.367188 109.859375 -46.226562 109.859375 -52.96875 C 109.859375 -59.71875 107.84375 -65.554688 103.8125 -70.484375 C 98.78125 -76.691406 90.894531 -79.796875 80.15625 -79.796875 C 69.425781 -79.796875 61.523438 -76.691406 56.453125 -70.484375 C 52.410156 -65.554688 50.390625 -59.71875 50.390625 -52.96875 C 50.390625 -46.226562 52.410156 -40.367188 56.453125 -35.390625 C 61.523438 -29.234375 69.425781 -26.15625 80.15625 -26.15625 Z M 80.15625 -26.15625 "/></g></g></g><g fill="#a6d1f4" fill-opacity="1"><g transform="translate(1022.772066, 253.902017)"><g><path d="M 80.15625 2.296875 C 53.957031 2.296875 34.675781 -3.097656 22.3125 -13.890625 C 11.375 -23.441406 5.90625 -36.46875 5.90625 -52.96875 C 5.90625 -69.425781 11.375 -82.429688 22.3125 -91.984375 C 34.675781 -102.773438 53.957031 -108.171875 80.15625 -108.171875 C 106.363281 -108.171875 125.648438 -102.773438 138.015625 -91.984375 C 148.953125 -82.429688 154.421875 -69.425781 154.421875 -52.96875 C 154.421875 -36.46875 148.953125 -23.441406 138.015625 -13.890625 C 125.648438 -3.097656 106.363281 2.296875 80.15625 2.296875 Z M 80.15625 -26.15625 C 90.894531 -26.15625 98.78125 -29.234375 103.8125 -35.390625 C 107.84375 -40.367188 109.859375 -46.226562 109.859375 -52.96875 C 109.859375 -59.71875 107.84375 -65.554688 103.8125 -70.484375 C 98.78125 -76.691406 90.894531 -79.796875 80.15625 -79.796875 C 69.425781 -79.796875 61.523438 -76.691406 56.453125 -70.484375 C 52.410156 -65.554688 50.390625 -59.71875 50.390625 -52.96875 C 50.390625 -46.226562 52.410156 -40.367188 56.453125 -35.390625 C 61.523438 -29.234375 69.425781 -26.15625 80.15625 -26.15625 Z M 80.15625 -26.15625 "/></g></g></g><g fill="#a6d1f4" fill-opacity="1"><g transform="translate(1183.098288, 253.902017)"><g><path d="M 185.890625 0 L 128.109375 0 L 82.59375 -35.46875 L 56.296875 -17.515625 L 56.296875 0 L 11.828125 0 L 11.828125 -106.015625 L 56.296875 -106.015625 L 56.296875 -56.96875 L 127.671875 -106.015625 L 185.890625 -106.015625 L 109.9375 -54.15625 Z M 185.890625 0 "/></g></g></g></svg>