<svg xmlns="http://www.w3.org/2000/svg" xmlns:xlink="http://www.w3.org/1999/xlink" width="1920" zoomAndPan="magnify" viewBox="0 0 1440 374.999991" height="500" preserveAspectRatio="xMidYMid meet" version="1.0"><defs><g/></defs><g fill="#a6d1f4" fill-opacity="1"><g transform="translate(3.585955, 253.902017)"><g><path d="M 56.296875 0 L 11.828125 0 L 11.828125 -106.015625 L 56.296875 -106.015625 Z M 56.296875 0 "/></g></g></g><g fill="#a6d1f4" fill-opacity="1"><g transform="translate(71.706128, 253.902017)"><g><path d="M 169.125 0 L 116.21875 0 L 56.296875 -71.734375 L 56.296875 0 L 11.828125 0 L 11.828125 -106.015625 L 64.71875 -106.015625 L 124.640625 -34.65625 L 124.640625 -106.015625 L 169.125 -106.015625 Z M 169.125 0 "/></g></g></g><g fill="#a6d1f4" fill-opacity="1"><g transform="translate(252.645724, 253.902017)"><g><path d="M 70.046875 2.296875 C 55.710938 2.296875 44.160156 0.757812 35.390625 -2.3125 C 26.617188 -5.394531 19.941406 -9.632812 15.359375 -15.03125 C 10.785156 -20.425781 7.707031 -26.644531 6.125 -33.6875 L 53.34375 -33.6875 C 56.84375 -28.664062 62.410156 -26.15625 70.046875 -26.15625 C 77.679688 -26.15625 83.242188 -28.664062 86.734375 -33.6875 C 87.035156 -34.175781 87.1875 -34.617188 87.1875 -35.015625 C 87.1875 -36.347656 85.421875 -37.347656 81.890625 -38.015625 C 78.367188 -38.679688 73.113281 -39.1875 66.125 -39.53125 C 57.3125 -39.925781 48.050781 -40.859375 38.34375 -42.328125 C 16.71875 -45.679688 5.90625 -54.378906 5.90625 -68.421875 C 5.90625 -69.597656 5.976562 -70.851562 6.125 -72.1875 C 7.707031 -79.226562 10.785156 -85.441406 15.359375 -90.828125 C 19.941406 -96.222656 26.617188 -100.460938 35.390625 -103.546875 C 44.160156 -106.628906 55.710938 -108.171875 70.046875 -108.171875 C 84.378906 -108.171875 95.925781 -106.628906 104.6875 -103.546875 C 113.457031 -100.460938 120.128906 -96.222656 124.703125 -90.828125 C 129.285156 -85.441406 132.367188 -79.226562 133.953125 -72.1875 L 86.734375 -72.1875 C 83.242188 -77.207031 77.679688 -79.71875 70.046875 -79.71875 C 62.410156 -79.71875 56.84375 -77.207031 53.34375 -72.1875 C 53.09375 -71.789062 52.96875 -71.421875 52.96875 -71.078125 C 52.96875 -69.890625 54.65625 -69.015625 58.03125 -68.453125 C 61.40625 -67.890625 66.378906 -67.410156 72.953125 -67.015625 C 79.535156 -66.617188 86.546875 -65.976562 93.984375 -65.09375 C 101.421875 -64.207031 108.375 -62.664062 114.84375 -60.46875 C 121.320312 -58.28125 126.382812 -55.039062 130.03125 -50.75 C 132.882812 -47.457031 134.3125 -43.273438 134.3125 -38.203125 C 134.3125 -36.773438 134.191406 -35.269531 133.953125 -33.6875 C 132.367188 -26.644531 129.285156 -20.425781 124.703125 -15.03125 C 120.128906 -9.632812 113.457031 -5.394531 104.6875 -2.3125 C 95.925781 0.757812 84.378906 2.296875 70.046875 2.296875 Z M 70.046875 2.296875 "/></g></g></g><g fill="#a6d1f4" fill-opacity="1"><g transform="translate(392.875757, 253.902017)"><g><path d="M 90.4375 0 L 45.953125 0 L 45.953125 -79.796875 L 4.4375 -79.796875 L 4.4375 -106.015625 L 131.953125 -106.015625 L 131.953125 -79.796875 L 90.4375 -79.796875 Z M 90.4375 0 "/></g></g></g><g fill="#a6d1f4" fill-opacity="1"><g transform="translate(529.263871, 253.902017)"><g><path d="M 178.0625 0 L 132.984375 0 L 123.015625 -17.359375 L 56.15625 -17.359375 L 46.171875 0 L 1.109375 0 L 68.9375 -105.953125 L 110.234375 -105.953125 Z M 108.015625 -43.59375 L 89.625 -75.734375 L 71.15625 -43.59375 Z M 108.015625 -43.59375 "/></g></g></g><g fill="#a6d1f4" fill-opacity="1"><g transform="translate(708.430271, 253.902017)"><g><path d="M 80.15625 2.296875 C 53.957031 2.296875 34.675781 -3.097656 22.3125 -13.890625 C 11.375 -23.441406 5.90625 -36.445312 5.90625 -52.90625 C 5.90625 -69.40625 11.375 -82.429688 22.3125 -91.984375 C 34.675781 -102.773438 53.957031 -108.171875 80.15625 -108.171875 C 95.082031 -108.171875 107.492188 -106.492188 117.390625 -103.140625 C 127.296875 -99.785156 135.066406 -95.210938 140.703125 -89.421875 C 146.347656 -83.640625 150.203125 -76.984375 152.265625 -69.453125 L 104.6875 -69.453125 C 99.71875 -76.296875 91.539062 -79.71875 80.15625 -79.71875 C 69.425781 -79.71875 61.523438 -76.640625 56.453125 -70.484375 C 52.410156 -65.503906 50.390625 -59.644531 50.390625 -52.90625 C 50.390625 -46.15625 52.410156 -40.316406 56.453125 -35.390625 C 61.523438 -29.234375 69.425781 -26.15625 80.15625 -26.15625 C 88.832031 -26.15625 95.347656 -26.90625 99.703125 -28.40625 C 104.066406 -29.90625 107.253906 -31.863281 109.265625 -34.28125 L 91.90625 -34.28125 L 91.90625 -52.90625 L 152.265625 -52.90625 L 152.265625 0.078125 L 133.796875 0.078125 L 130.03125 -10.203125 C 118.257812 -1.867188 101.632812 2.296875 80.15625 2.296875 Z M 80.15625 2.296875 "/></g></g></g><g fill="#a6d1f4" fill-opacity="1"><g transform="translate(869.569208, 253.902017)"><g><path d="M 156.5625 0 L 114.515625 0 C 112.597656 -2.65625 111.242188 -6.054688 110.453125 -10.203125 C 109.765625 -13.398438 108.726562 -16.535156 107.34375 -19.609375 C 105.96875 -22.691406 103.59375 -25.253906 100.21875 -27.296875 C 96.84375 -29.335938 91.832031 -30.4375 85.1875 -30.59375 L 56.296875 -30.59375 L 56.296875 0 L 11.828125 0 L 11.828125 -106.015625 L 84.15625 -106.015625 C 101.4375 -106.015625 115.382812 -104.722656 126 -102.140625 C 136.613281 -99.554688 144.359375 -95.492188 149.234375 -89.953125 C 154.117188 -84.410156 156.5625 -77.179688 156.5625 -68.265625 C 156.5625 -60.828125 154.875 -54.570312 151.5 -49.5 C 148.125 -44.425781 142.789062 -40.410156 135.5 -37.453125 C 142.539062 -34.546875 147.109375 -31.0625 149.203125 -27 C 151.296875 -22.9375 152.585938 -18.46875 153.078125 -13.59375 C 153.578125 -9.257812 154.738281 -4.726562 156.5625 0 Z M 56.296875 -56.75 L 81.71875 -56.8125 C 88.8125 -56.8125 94.398438 -57.128906 98.484375 -57.765625 C 102.578125 -58.410156 105.59375 -59.285156 107.53125 -60.390625 C 109.476562 -61.503906 110.722656 -62.738281 111.265625 -64.09375 C 111.804688 -65.445312 112.078125 -66.835938 112.078125 -68.265625 C 112.078125 -69.691406 111.804688 -71.09375 111.265625 -72.46875 C 110.722656 -73.851562 109.476562 -75.097656 107.53125 -76.203125 C 105.59375 -77.316406 102.578125 -78.191406 98.484375 -78.828125 C 94.398438 -79.472656 88.8125 -79.796875 81.71875 -79.796875 L 56.296875 -79.796875 Z M 56.296875 -56.75 "/></g></g></g><g fill="#a6d1f4" fill-opacity="1"><g transform="translate(1032.038038, 253.902017)"><g><path d="M 178.0625 0 L 132.984375 0 L 123.015625 -17.359375 L 56.15625 -17.359375 L 46.171875 0 L 1.109375 0 L 68.9375 -105.953125 L 110.234375 -105.953125 Z M 108.015625 -43.59375 L 89.625 -75.734375 L 71.15625 -43.59375 Z M 108.015625 -43.59375 "/></g></g></g><g fill="#a6d1f4" fill-opacity="1"><g transform="translate(1211.204438, 253.902017)"><g><path d="M 213.375 0 L 168.890625 0 L 168.890625 -67.609375 L 129.140625 0 L 95.96875 0 L 56.296875 -67.609375 L 56.296875 0 L 11.828125 0 L 11.828125 -106.015625 L 64.640625 -106.015625 L 112.59375 -30.296875 L 160.46875 -106.015625 L 213.375 -106.015625 Z M 213.375 0 "/></g></g></g></svg>