<svg xmlns="http://www.w3.org/2000/svg" xmlns:xlink="http://www.w3.org/1999/xlink" width="500" zoomAndPan="magnify" viewBox="0 0 375 374.999991" height="500" preserveAspectRatio="xMidYMid meet" version="1.0"><defs><g/><clipPath id="7f5eed3f6c"><path d="M 11.953125 0 L 171 0 L 171 258 L 11.953125 258 Z M 11.953125 0 " clip-rule="nonzero"/></clipPath><clipPath id="d4349d3c96"><path d="M 204 0 L 362.953125 0 L 362.953125 258 L 204 258 Z M 204 0 " clip-rule="nonzero"/></clipPath></defs><g clip-path="url(#7f5eed3f6c)"><path fill="#eeba2b" d="M 123.648438 236.050781 C 137.925781 244.371094 152.582031 252.117188 168.265625 257.496094 C 169.097656 256.984375 170.378906 256.664062 170.378906 255.511719 C 170.675781 253.046875 170.613281 250.59375 170.183594 248.148438 C 165.449219 246.933594 160.96875 244.882812 156.488281 242.902344 C 138.566406 235.089844 121.472656 224.722656 107.328125 211.085938 C 110.464844 202.832031 111.105469 193.742188 110.082031 185.035156 C 108.800781 174.347656 103.613281 164.425781 96.703125 156.359375 C 95.933594 160.199219 95.101562 163.976562 94.527344 167.882812 C 92.605469 179.273438 93.308594 191.246094 97.535156 202 C 91.132812 194.765625 84.667969 187.402344 79.675781 179.082031 C 83.773438 174.792969 86.460938 169.289062 88.765625 163.914062 C 93.949219 151.109375 93.886719 136.773438 91.070312 123.394531 C 86.941406 127.75 83.375 132.53125 80.378906 137.730469 C 75.003906 147.207031 72.378906 158.40625 73.851562 169.226562 C 70.394531 160.777344 66.363281 152.582031 63.863281 143.8125 C 68.730469 140.292969 72.507812 135.429688 75.707031 130.371094 C 80.570312 122.433594 82.492188 113.152344 83.066406 103.933594 C 79.382812 103.390625 75.949219 102.152344 72.761719 100.222656 C 70.949219 102.472656 69.34375 104.859375 67.9375 107.382812 C 66.535156 109.90625 65.355469 112.535156 64.402344 115.257812 C 63.449219 117.984375 62.734375 120.773438 62.253906 123.621094 C 61.777344 126.46875 61.546875 129.339844 61.5625 132.226562 C 59.894531 122.050781 58.425781 111.746094 58.550781 101.375 C 61.878906 98.6875 65.335938 96.0625 68.21875 92.863281 C 69.242188 90.492188 69.304688 87.675781 71.164062 85.691406 C 73.019531 83.707031 76.921875 82.621094 78.652344 79.675781 C 85.691406 70.90625 88.316406 59.511719 88.765625 48.4375 C 82.640625 53.042969 77.007812 58.1875 71.867188 63.863281 C 66.808594 69.882812 62.585938 76.667969 60.152344 84.09375 C 60.28125 78.011719 61.753906 72.058594 62.585938 66.042969 C 62.519531 63.992188 64.824219 63.546875 66.042969 62.457031 C 78.714844 53.304688 86.078125 38.390625 88.765625 23.21875 C 79.546875 29.234375 70.648438 37.109375 66.554688 47.605469 C 68.027344 40.949219 70.203125 34.421875 72.441406 27.957031 C 74.683594 21.492188 76.539062 16.371094 80.570312 11.761719 C 80.058594 7.664062 78.332031 3.953125 77.433594 0.046875 C 76.644531 0.894531 75.984375 1.835938 75.449219 2.863281 C 69.113281 14.257812 64.953125 26.738281 61.433594 39.285156 C 60.410156 43.253906 59.511719 47.285156 58.871094 51.320312 C 60.152344 41.589844 60.855469 31.605469 58.746094 21.9375 C 57.398438 14.898438 54.902344 8.113281 52.535156 1.390625 C 48.007812 8.925781 45.191406 17.058594 44.085938 25.777344 C 42.484375 39.734375 46.070312 53.945312 53.046875 65.976562 C 53.6875 67.195312 54.839844 68.410156 54.390625 69.882812 C 53.367188 76.859375 52.40625 83.898438 52.277344 91.003906 C 51.085938 81.472656 48.484375 72.339844 44.46875 63.609375 C 39.878906 53.101562 33.945312 43.414062 26.675781 34.546875 C 25.90625 37.558594 25.265625 40.628906 24.753906 43.703125 C 23.851562 49.058594 23.683594 54.433594 24.25 59.835938 C 24.816406 65.234375 26.09375 70.460938 28.082031 75.515625 C 30.507812 81.550781 33.722656 87.132812 37.726562 92.257812 C 41.730469 97.382812 46.367188 101.851562 51.640625 105.664062 C 51.835938 113.945312 52.6875 122.160156 54.199219 130.308594 C 51.128906 124.289062 48.183594 118.144531 44.148438 112.640625 C 35.636719 99.839844 24.308594 89.214844 11.953125 80.125 C 12.140625 87.234375 13.269531 94.1875 15.34375 100.992188 C 19.3125 114.367188 27.890625 126.082031 38.710938 134.722656 C 44.40625 139.269531 50.488281 143.429688 57.207031 146.375 C 60.039062 155.070312 63.515625 163.496094 67.640625 171.65625 C 54.136719 152.519531 34.035156 138.628906 11.953125 131.074219 C 17.074219 144.453125 24.753906 157.128906 35.765625 166.472656 C 45.496094 174.921875 57.65625 180.234375 70.136719 183.050781 C 71.738281 183.371094 73.722656 183.5 74.617188 185.164062 C 79.484375 191.820312 84.730469 198.222656 90.171875 204.429688 C 81.914062 197.902344 72.953125 192.140625 63.160156 188.234375 C 53.367188 184.332031 41.332031 182.539062 30.066406 182.601562 C 38.453125 192.972656 48.4375 202.511719 60.730469 208.015625 C 73.019531 213.519531 85.117188 214.992188 97.664062 214.609375 C 99.261719 214.222656 100.285156 215.761719 101.375 216.65625 C 104.253906 219.535156 107.648438 221.90625 110.59375 224.722656 C 103.742188 222.289062 96.636719 220.050781 89.339844 220.050781 C 82.042969 220.050781 74.8125 221.96875 67.769531 223.890625 C 72.222656 227.382812 77.023438 230.308594 82.171875 232.660156 C 94.140625 238.355469 108.222656 238.996094 120.898438 235.21875 C 121.921875 234.835938 122.753906 235.601562 123.648438 236.050781 Z M 123.648438 236.050781 " fill-opacity="1" fill-rule="nonzero"/></g><g clip-path="url(#d4349d3c96)"><path fill="#eeba2b" d="M 307.230469 171.082031 C 311.078125 163.789062 314.320312 156.234375 316.960938 148.421875 C 317.28125 147.71875 317.40625 146.820312 317.984375 146.308594 C 331.683594 139.589844 344.101562 129.476562 352.292969 116.480469 C 359.140625 105.535156 362.40625 92.667969 363.046875 79.867188 C 358.414062 83.121094 354.011719 86.664062 349.84375 90.496094 C 345.675781 94.328125 341.773438 98.414062 338.144531 102.761719 C 334.511719 107.105469 331.179688 111.667969 328.148438 116.449219 C 325.117188 121.234375 322.410156 126.195312 320.03125 131.332031 C 322.207031 123.011719 322.527344 114.304688 323.167969 105.792969 C 326.082031 103.585938 328.804688 101.171875 331.34375 98.542969 C 333.878906 95.914062 336.199219 93.109375 338.300781 90.121094 C 340.402344 87.132812 342.261719 84.003906 343.878906 80.726562 C 345.492188 77.453125 346.847656 74.070312 347.941406 70.585938 C 351.523438 58.871094 350.949219 46.132812 347.875 34.355469 C 334.753906 50.421875 325.472656 69.816406 322.144531 90.363281 C 322.273438 83.066406 320.929688 75.835938 320.222656 68.601562 C 326.816406 56.953125 331.296875 43.765625 330.851562 30.195312 C 330.652344 25.101562 329.816406 20.117188 328.34375 15.234375 C 326.867188 10.355469 324.800781 5.742188 322.144531 1.390625 C 319.777344 8.175781 317.40625 14.960938 315.9375 22.003906 C 314.332031 29.636719 313.882812 37.339844 314.589844 45.109375 C 314.953125 46.972656 315.101562 48.847656 315.039062 50.742188 C 313.3125 38.835938 309.664062 27.1875 305.246094 16.050781 C 302.878906 10.542969 300.703125 4.847656 296.988281 0.046875 C 295.773438 3.886719 294.042969 7.664062 293.789062 11.761719 C 295.003906 13.679688 296.605469 15.34375 297.5 17.457031 C 301.917969 26.867188 304.925781 36.851562 307.550781 46.902344 C 303.390625 36.789062 294.875 29.234375 285.914062 23.28125 C 288.601562 39.542969 297.246094 55.542969 311.390625 64.503906 C 313.121094 70.90625 313.886719 77.5625 314.527344 84.21875 C 309.855469 69.179688 297.691406 58.167969 285.722656 48.695312 C 285.722656 60.535156 289.371094 72.632812 297.179688 81.660156 C 299.613281 83.195312 302.492188 84.347656 303.902344 87.035156 C 305.308594 89.726562 304.925781 92.347656 307.039062 94.207031 C 309.820312 96.75 312.742188 99.117188 315.808594 101.3125 C 316.191406 110.335938 314.976562 119.363281 313.757812 128.257812 C 313.566406 129.476562 314.015625 131.011719 312.925781 131.90625 C 312.863281 129.667969 313.375 127.363281 312.925781 125.121094 C 312.25 120.417969 310.929688 115.898438 308.972656 111.566406 C 307.011719 107.238281 304.492188 103.261719 301.40625 99.648438 C 298.652344 102.015625 295.195312 103.230469 291.675781 103.871094 C 292.058594 109.054688 292.445312 114.367188 293.980469 119.363281 C 296.925781 129.089844 303.199219 137.414062 310.816406 144.070312 C 308.765625 149.703125 306.78125 155.398438 304.285156 160.839844 C 303.132812 163.464844 301.726562 165.960938 300.703125 168.648438 C 301.59375 162.777344 301.273438 156.976562 299.742188 151.238281 C 297.246094 140.804688 291.292969 131.585938 284.121094 123.777344 C 283.355469 123.96875 283.609375 124.996094 283.355469 125.570312 C 281.5 134.660156 280.921875 144.070312 282.585938 153.222656 C 284.25 162.375 288.089844 172.042969 294.621094 179.210938 C 289.691406 187.597656 283.226562 194.894531 276.699219 202 C 278.105469 197.390625 279.578125 192.714844 280.21875 187.851562 C 281.691406 177.355469 279.960938 166.730469 277.722656 156.421875 C 268.375 166.535156 262.871094 180.300781 263.449219 194.1875 C 263.769531 199.886719 264.085938 205.773438 266.648438 210.960938 L 264.472656 213.199219 C 247.253906 228.5 226.707031 239.765625 205.261719 248.085938 C 204.046875 248.277344 204.367188 249.621094 204.238281 250.519531 C 204.238281 252.566406 203.984375 254.804688 204.75 256.789062 C 206.222656 257.6875 208.078125 256.789062 209.617188 256.277344 C 224.59375 250.644531 238.546875 242.773438 252.5 235.027344 C 263.449219 238.355469 275.480469 238.933594 286.425781 235.21875 C 293.789062 232.851562 300.382812 228.5625 306.847656 224.335938 C 302.121094 222.558594 297.257812 221.34375 292.253906 220.6875 C 282.394531 219.28125 272.472656 221.585938 263.191406 224.914062 C 267.097656 221.457031 271.320312 218.320312 275.097656 214.671875 C 289.628906 215.3125 304.796875 213.390625 317.664062 206.222656 C 328.417969 200.527344 337.121094 191.882812 344.867188 182.601562 C 336.355469 182.539062 327.777344 183.179688 319.585938 185.546875 C 306.78125 189.195312 295.003906 195.851562 284.636719 204.175781 C 289.789062 198.476562 294.632812 192.523438 299.164062 186.316406 C 300.0625 185.417969 300.507812 183.820312 301.917969 183.5625 C 309.46875 182.347656 316.769531 179.660156 323.679688 176.332031 C 335.777344 170.570312 345.890625 161.097656 353.1875 149.957031 C 357.15625 144.070312 360.101562 137.605469 362.917969 131.140625 C 340.707031 138.050781 321.25 152.582031 307.230469 171.082031 Z M 307.230469 171.082031 " fill-opacity="1" fill-rule="nonzero"/></g><path fill="#eeba2b" d="M 81.277344 90.75 C 81.148438 88.699219 81.660156 86.078125 79.546875 84.859375 C 77.433594 83.644531 73.148438 85.4375 71.800781 88.125 C 69.691406 91.835938 71.417969 96.832031 74.9375 99.007812 C 80.699219 102.65625 87.804688 103.550781 94.527344 103.488281 C 101.246094 103.421875 107.136719 102.527344 113.34375 103.550781 C 113.28125 122.433594 113.921875 141.382812 117.183594 160.007812 C 121.410156 182.796875 129.730469 205.261719 144.261719 223.570312 C 150.664062 231.441406 158.214844 238.738281 167.367188 243.414062 C 170.441406 244.882812 173.449219 246.867188 176.96875 246.933594 C 183.628906 247.0625 190.285156 247.125 196.941406 246.933594 C 199.183594 246.867188 201.292969 246.035156 203.34375 245.203125 C 212.496094 241.171875 220.367188 234.644531 226.835938 227.027344 C 236.5 215.824219 243.605469 202.636719 248.726562 188.8125 C 258.710938 161.671875 260.953125 132.417969 260.695312 103.742188 C 267.351562 102.910156 274.074219 103.296875 280.792969 103.296875 C 287.515625 103.296875 293.339844 102.464844 298.71875 99.261719 C 301.40625 97.597656 303.964844 94.847656 303.582031 91.453125 C 303.199219 88.0625 299.484375 83.066406 295.386719 84.347656 C 292.699219 85.308594 293.019531 88.507812 292.957031 90.75 C 288.988281 91.644531 285.273438 89.917969 281.5 89.019531 C 274.839844 87.035156 267.863281 86.460938 260.953125 86.398438 C 260.824219 81.53125 261.015625 76.667969 260.757812 71.867188 C 257.558594 69.816406 253.71875 69.050781 250.070312 68.089844 C 237.460938 65.335938 224.59375 64.503906 211.726562 63.800781 C 194.1875 63.226562 176.714844 63.160156 159.175781 63.992188 C 145.863281 65.015625 132.292969 65.785156 119.363281 69.496094 C 117.378906 70.203125 115.074219 70.714844 113.601562 72.25 C 113.34375 76.988281 113.535156 81.789062 113.410156 86.589844 C 106.175781 86.078125 98.941406 87.230469 91.964844 89.148438 C 88.507812 90.171875 84.925781 91.773438 81.277344 90.75 Z M 170.058594 238.292969 C 168.007812 238.164062 166.472656 236.753906 164.871094 235.601562 C 156.167969 229.203125 149.703125 220.242188 144.710938 210.765625 C 138.949219 199.820312 134.851562 188.171875 131.585938 176.265625 C 130.5 174.027344 130.371094 171.59375 129.859375 169.226562 C 134.851562 187.660156 143.492188 205.328125 155.71875 220.113281 C 162.183594 227.792969 170.058594 234.386719 179.082031 238.804688 C 176.0625 238.816406 173.054688 238.644531 170.058594 238.292969 Z M 234.707031 197.261719 C 229.457031 210.382812 222.800781 223.503906 212.113281 233.042969 C 209.742188 234.964844 207.375 237.074219 204.496094 238.164062 C 201.585938 238.554688 198.660156 238.726562 195.726562 238.675781 C 197.964844 237.203125 200.527344 236.308594 202.636719 234.644531 C 219.664062 221.839844 230.996094 202.957031 238.613281 183.371094 C 239.820312 180.675781 240.800781 177.902344 241.554688 175.050781 C 240.019531 182.601562 237.394531 189.964844 234.707031 197.261719 Z M 135.429688 83.644531 C 154.632812 84.667969 173.832031 84.796875 193.035156 84.796875 C 212.238281 84.796875 231.953125 84.347656 251.351562 83.003906 C 238.332031 86.464844 225.105469 88.640625 211.664062 89.53125 C 184.714844 91.390625 157.320312 90.941406 130.820312 84.925781 C 127.9375 84.539062 125.1875 83.324219 122.242188 83.195312 L 120.769531 82.171875 C 125.632812 83.386719 130.5625 83.261719 135.429688 83.644531 Z M 135.429688 83.644531 " fill-opacity="1" fill-rule="nonzero"/><path fill="#eeba2b" d="M 202.765625 255.832031 C 202.832031 253.335938 202.832031 250.902344 202.832031 248.40625 C 192.523438 248.535156 182.28125 248.660156 171.976562 248.46875 C 171.976562 250.964844 171.976562 253.398438 171.785156 255.894531 C 182.15625 255.894531 192.460938 255.765625 202.765625 255.832031 Z M 202.765625 255.832031 " fill-opacity="1" fill-rule="nonzero"/><path fill="#eeba2b" d="M 246.101562 350.308594 C 245.84375 335.523438 246.230469 320.738281 245.84375 305.949219 C 237.84375 301.148438 230.226562 295.582031 223.953125 288.667969 C 217.679688 281.753906 212.558594 274.203125 208.078125 266.199219 C 206.285156 263.253906 204.941406 260.117188 202.765625 257.429688 C 192.460938 257.300781 182.15625 257.429688 171.847656 257.429688 C 167.625 264.28125 163.976562 271.511719 159.304688 278.105469 C 152.390625 287.898438 143.878906 296.734375 133.507812 302.8125 C 131.714844 303.964844 130.050781 305.375 128.066406 306.140625 C 128.023438 320.695312 128.046875 335.222656 128.132812 349.734375 C 128.449219 352.292969 126.464844 354.085938 125.1875 356.070312 C 120.640625 362.277344 116.351562 368.742188 111.808594 374.953125 L 262.617188 374.953125 C 257.75 367.867188 252.800781 360.828125 247.765625 353.828125 C 246.996094 352.804688 245.972656 351.78125 246.101562 350.308594 Z M 224.464844 295.195312 C 222.019531 294.058594 219.6875 292.722656 217.46875 291.1875 C 215.25 289.652344 213.175781 287.941406 211.246094 286.058594 C 209.316406 284.171875 207.558594 282.136719 205.972656 279.953125 C 204.390625 277.769531 203 275.46875 201.804688 273.050781 C 200.269531 269.914062 198.925781 266.710938 197.773438 263.449219 C 204.238281 275.800781 212.878906 287.324219 224.53125 295.195312 Z M 205.902344 352.292969 C 181.132812 352.355469 156.359375 352.675781 131.652344 351.652344 C 145.246094 349.398438 158.925781 347.863281 172.683594 347.042969 C 195.789062 345.636719 218.960938 348.003906 241.75 351.460938 C 229.777344 352.292969 217.808594 352.164062 205.902344 352.292969 Z M 226.386719 305.4375 C 194.917969 307.21875 163.464844 306.921875 132.035156 304.542969 C 139.652344 304.285156 147.140625 303.003906 154.695312 302.300781 C 173.640625 300.378906 192.609375 300.144531 211.601562 301.597656 C 221.714844 302.238281 231.761719 303.710938 241.8125 304.667969 C 236.628906 304.414062 231.570312 305.503906 226.386719 305.4375 Z M 226.386719 305.4375 " fill-opacity="1" fill-rule="nonzero"/><g fill="#eeba2b" fill-opacity="1"><g transform="translate(180.058586, 333.849969)"><g><path d="M 12.296875 0 L 12.296875 -5.578125 C 12.296875 -6.253906 12.148438 -6.765625 11.859375 -7.109375 C 11.566406 -7.453125 11.113281 -7.625 10.5 -7.625 C 9.6875 -7.625 9.085938 -7.390625 8.703125 -6.921875 C 8.316406 -6.460938 8.125 -5.75 8.125 -4.78125 L 8.125 0 L 6.828125 0 L 6.828125 -5.578125 C 6.828125 -6.253906 6.679688 -6.765625 6.390625 -7.109375 C 6.097656 -7.453125 5.644531 -7.625 5.03125 -7.625 C 4.21875 -7.625 3.617188 -7.378906 3.234375 -6.890625 C 2.859375 -6.398438 2.671875 -5.601562 2.671875 -4.5 L 2.671875 0 L 1.375 0 L 1.375 -8.5625 L 2.4375 -8.5625 L 2.640625 -7.390625 L 2.703125 -7.390625 C 2.953125 -7.804688 3.296875 -8.128906 3.734375 -8.359375 C 4.179688 -8.597656 4.679688 -8.71875 5.234375 -8.71875 C 6.578125 -8.71875 7.453125 -8.234375 7.859375 -7.265625 L 7.921875 -7.265625 C 8.179688 -7.710938 8.550781 -8.066406 9.03125 -8.328125 C 9.519531 -8.585938 10.070312 -8.71875 10.6875 -8.71875 C 11.65625 -8.71875 12.378906 -8.46875 12.859375 -7.96875 C 13.347656 -7.476562 13.59375 -6.6875 13.59375 -5.59375 L 13.59375 0 Z M 12.296875 0 "/></g></g></g></svg>