<svg xmlns="http://www.w3.org/2000/svg" xmlns:xlink="http://www.w3.org/1999/xlink" width="500" zoomAndPan="magnify" viewBox="0 0 375 374.999991" height="500" preserveAspectRatio="xMidYMid meet" version="1.0"><defs><clipPath id="34d976524b"><path d="M 56.539062 19.867188 L 318.460938 19.867188 L 318.460938 355.457031 L 56.539062 355.457031 Z M 56.539062 19.867188 " clip-rule="nonzero"/></clipPath><clipPath id="6c6b281098"><path d="M 318.460938 19.867188 L 318.460938 307.984375 L 187.5 355.132812 L 56.539062 307.984375 L 56.539062 19.867188 Z M 318.460938 19.867188 " clip-rule="nonzero"/></clipPath><clipPath id="fd8b8e9d4d"><path d="M 63.457031 28.730469 L 311.53125 28.730469 L 311.53125 345.976562 L 63.457031 345.976562 Z M 63.457031 28.730469 " clip-rule="nonzero"/></clipPath><clipPath id="a424b2dc0e"><path d="M 311.53125 28.730469 L 311.53125 301.609375 L 187.496094 346.265625 L 63.457031 301.609375 L 63.457031 28.730469 Z M 311.53125 28.730469 " clip-rule="nonzero"/></clipPath><clipPath id="3e35320396"><path d="M 127.605469 77.902344 L 247.605469 77.902344 L 247.605469 285.652344 L 127.605469 285.652344 Z M 127.605469 77.902344 " clip-rule="nonzero"/></clipPath></defs><g clip-path="url(#34d976524b)"><g clip-path="url(#6c6b281098)"><path fill="#000000" d="M 56.539062 19.867188 L 318.460938 19.867188 L 318.460938 355.457031 L 56.539062 355.457031 Z M 56.539062 19.867188 " fill-opacity="1" fill-rule="nonzero"/></g></g><g clip-path="url(#fd8b8e9d4d)"><g clip-path="url(#a424b2dc0e)"><path stroke-linecap="butt" transform="matrix(0.75, 0, 0, 0.75, 63.457565, 28.72966)" fill="none" stroke-linejoin="miter" d="M 330.764935 0.0010785 L 330.764935 363.839644 L 165.384716 423.381315 L -0.000711844 363.839644 L -0.000711844 0.0010785 Z M 330.764935 0.0010785 " stroke="#eeba2b" stroke-width="14" stroke-opacity="1" stroke-miterlimit="4"/></g></g><g clip-path="url(#3e35320396)"><path fill="#eeba2b" d="M 177.371094 92.515625 C 177.664062 92.394531 177.917969 92.21875 178.136719 91.988281 C 178.179688 91.945312 178.234375 91.914062 178.292969 91.898438 C 178.351562 91.882812 178.414062 91.882812 178.46875 91.902344 C 178.933594 92.03125 179.203125 92.277344 179.273438 92.632812 C 179.453125 93.515625 179.488281 94.554688 179.375 95.75 C 179.25 97.054688 178.320312 98.070312 177.59375 99.097656 C 177.523438 99.195312 177.5 99.304688 177.523438 99.425781 C 177.820312 100.925781 177.894531 102.472656 178.394531 103.957031 C 178.621094 104.632812 178.847656 105.296875 179.074219 105.941406 C 179.097656 106.011719 179.132812 106.070312 179.179688 106.125 C 179.230469 106.175781 179.289062 106.21875 179.351562 106.246094 C 179.417969 106.277344 179.488281 106.292969 179.558594 106.292969 C 179.628906 106.292969 179.699219 106.277344 179.765625 106.25 C 180.574219 105.902344 181.355469 106.03125 182.105469 106.632812 C 182.570312 107 183.027344 107.363281 183.472656 107.722656 C 183.808594 107.988281 183.9375 108.308594 184.128906 108.671875 C 184.179688 108.765625 184.253906 108.824219 184.347656 108.855469 C 185.242188 109.109375 186.121094 109.0625 186.980469 109.492188 C 188.046875 110.023438 188.988281 110.746094 189.800781 111.664062 C 190.546875 112.507812 191.78125 112.574219 192.75 113.03125 C 193.378906 113.328125 194.023438 113.566406 194.679688 113.742188 C 195.703125 114.023438 196.628906 114.539062 197.621094 114.945312 C 198.128906 115.148438 198.535156 115.433594 198.84375 115.792969 C 199.296875 116.3125 199.921875 116.640625 200.226562 117.269531 C 200.632812 118.097656 201.019531 118.894531 201.394531 119.660156 C 201.792969 120.46875 202.515625 120.828125 203.011719 121.53125 C 203.824219 122.679688 204.324219 123.925781 204.515625 125.273438 C 204.644531 126.183594 205.132812 126.875 205.984375 127.351562 C 206.117188 127.425781 206.226562 127.546875 206.285156 127.6875 C 206.492188 128.171875 206.75 128.628906 207.054688 129.0625 C 207.460938 129.632812 207.632812 130.351562 207.925781 130.992188 C 208.226562 131.644531 208.828125 131.640625 209.371094 131.984375 C 210.332031 132.597656 210.828125 133.269531 211.226562 134.273438 C 211.390625 134.6875 211.742188 134.863281 212.128906 135.015625 C 212.226562 135.050781 212.308594 135.125 212.355469 135.21875 L 212.691406 135.878906 C 212.71875 135.941406 212.761719 135.992188 212.8125 136.035156 C 212.867188 136.082031 212.925781 136.113281 212.992188 136.132812 C 213.902344 136.425781 214.523438 137.21875 214.925781 138.066406 C 215 138.226562 215.117188 138.34375 215.273438 138.425781 C 216.023438 138.820312 216.53125 139.410156 216.796875 140.199219 C 216.816406 140.25 216.84375 140.296875 216.882812 140.335938 C 216.917969 140.378906 216.964844 140.410156 217.015625 140.433594 C 217.820312 140.777344 218.421875 141.132812 218.824219 141.488281 C 221.230469 143.652344 223.449219 145.984375 225.476562 148.484375 C 225.808594 148.894531 225.984375 149.375 226.332031 149.730469 C 226.796875 150.207031 227.066406 150.777344 227.347656 151.363281 C 227.402344 151.476562 227.492188 151.574219 227.601562 151.636719 C 228.238281 152.003906 228.773438 152.507812 229.207031 153.140625 C 229.699219 153.871094 229.96875 154.496094 230.714844 155.066406 C 231.3125 155.527344 231.914062 156.152344 232.515625 156.941406 C 232.734375 157.230469 232.996094 157.402344 233.351562 157.496094 C 234.15625 157.703125 234.855469 158.09375 235.460938 158.664062 C 235.535156 158.734375 235.625 158.765625 235.730469 158.757812 C 237.078125 158.664062 238.625 158.917969 239.648438 159.847656 C 240.214844 160.359375 240.875 160.714844 241.636719 160.910156 C 241.851562 160.964844 242.035156 161.101562 242.148438 161.289062 C 242.261719 161.476562 242.300781 161.703125 242.25 161.917969 C 242.015625 162.90625 242.890625 163.128906 243.027344 163.984375 C 243.136719 164.621094 242.851562 165 242.179688 165.113281 C 242.15625 165.117188 242.136719 165.128906 242.121094 165.140625 C 242.105469 165.152344 242.089844 165.167969 242.082031 165.1875 C 242.074219 165.207031 242.066406 165.226562 242.066406 165.25 C 242.070312 165.269531 242.074219 165.289062 242.082031 165.308594 C 242.210938 165.554688 242.363281 165.78125 242.539062 165.988281 C 243.265625 166.832031 242.625 168.417969 241.421875 168.066406 C 240.960938 167.933594 240.492188 167.78125 240.015625 167.613281 C 240 167.609375 239.988281 167.605469 239.972656 167.609375 C 239.957031 167.609375 239.945312 167.613281 239.933594 167.621094 C 239.921875 167.628906 239.910156 167.640625 239.902344 167.652344 C 239.894531 167.664062 239.890625 167.679688 239.886719 167.691406 L 239.878906 167.808594 C 239.875 167.859375 239.882812 167.910156 239.910156 167.957031 C 239.933594 168.003906 239.972656 168.039062 240.019531 168.0625 C 241.429688 168.808594 240.890625 170.769531 239.328125 170.25 C 238.617188 170.011719 237.894531 169.878906 237.15625 169.855469 C 235.953125 169.8125 234.957031 169.257812 233.863281 168.851562 C 233.476562 168.710938 233.148438 168.433594 232.949219 168.074219 C 232.550781 167.347656 232.109375 166.609375 231.632812 165.859375 C 231.238281 165.234375 230.488281 165.269531 229.863281 165.058594 C 229.222656 164.839844 229.023438 164.265625 228.570312 163.824219 C 228.484375 163.738281 228.378906 163.683594 228.253906 163.660156 C 227.402344 163.492188 227.304688 162.804688 226.667969 162.378906 C 225.875 161.851562 225.308594 161.148438 224.449219 160.691406 C 223.882812 160.390625 223.417969 159.976562 223.058594 159.441406 C 222.367188 158.414062 221.644531 157.496094 220.886719 156.691406 C 220.542969 156.320312 220.066406 156.175781 219.734375 155.789062 C 219.148438 155.097656 218.371094 154.734375 217.691406 154.136719 C 216.898438 153.441406 216.097656 152.738281 215.292969 152.023438 C 214.992188 151.757812 214.683594 151.558594 214.375 151.429688 C 213.746094 151.171875 213.535156 150.390625 212.972656 149.929688 C 212.328125 149.40625 211.710938 148.992188 211.121094 148.6875 C 210.558594 148.394531 210.058594 148.089844 209.621094 147.769531 C 208.984375 147.304688 208.308594 146.984375 207.714844 146.460938 C 206.601562 145.476562 205.449219 144.648438 204.253906 143.976562 C 204.015625 143.84375 203.78125 143.707031 203.554688 143.5625 C 203.15625 143.304688 202.742188 143.046875 202.324219 142.789062 C 201.90625 142.53125 201.523438 142.242188 201.171875 141.929688 C 200.59375 141.398438 199.96875 140.929688 199.296875 140.523438 C 199.164062 140.445312 199.097656 140.480469 199.09375 140.636719 C 199.046875 143.183594 199.007812 145.773438 198.976562 148.402344 C 198.960938 149.316406 198.648438 150.113281 198.03125 150.796875 C 197.335938 151.5625 198.113281 152.84375 197.640625 153.789062 C 197.320312 154.4375 197.257812 155.203125 197.457031 156.09375 C 197.480469 156.183594 197.535156 156.246094 197.621094 156.285156 C 198.21875 156.546875 198.835938 156.941406 199.464844 157.472656 C 199.929688 157.859375 200.023438 158.34375 200.167969 158.886719 C 200.199219 158.996094 200.261719 159.089844 200.351562 159.160156 C 200.699219 159.433594 201.089844 159.59375 201.410156 159.90625 C 202.269531 160.730469 202.902344 161.707031 203.316406 162.839844 C 203.449219 163.21875 203.667969 163.5625 203.960938 163.878906 C 205.152344 165.148438 205.667969 167.058594 206.191406 168.722656 C 206.34375 169.210938 206.5625 169.667969 206.847656 170.101562 C 207.460938 171.039062 207.605469 172.089844 207.675781 173.195312 C 207.703125 173.625 207.832031 174.035156 208.054688 174.421875 C 208.300781 174.847656 208.53125 175.273438 208.738281 175.695312 C 209.191406 176.613281 210.582031 176.933594 211.542969 177.050781 C 211.765625 177.078125 211.953125 177.175781 212.113281 177.339844 C 213.09375 178.351562 214.011719 179.488281 214.875 180.746094 C 215.070312 181.027344 215.175781 181.332031 215.191406 181.664062 C 215.195312 181.769531 215.234375 181.863281 215.308594 181.945312 C 215.929688 182.636719 216.421875 183.371094 216.78125 184.144531 C 216.953125 184.511719 217.1875 184.824219 217.488281 185.082031 C 217.941406 185.46875 218.152344 186.082031 218.699219 186.367188 C 219.109375 186.582031 219.484375 186.882812 219.820312 187.277344 C 220.199219 187.71875 220.785156 187.84375 221.125 188.265625 C 221.742188 189.027344 222.335938 189.789062 222.914062 190.550781 C 223.132812 190.835938 223.375 191.09375 223.640625 191.320312 C 224 191.621094 224.238281 192.011719 224.652344 192.242188 C 225.1875 192.539062 225.621094 192.972656 225.960938 193.542969 C 226.023438 193.648438 226.113281 193.734375 226.21875 193.800781 C 226.710938 194.09375 227.101562 194.476562 227.382812 194.953125 C 227.476562 195.117188 227.605469 195.246094 227.765625 195.34375 C 228.226562 195.621094 228.542969 196.015625 228.722656 196.53125 C 228.785156 196.710938 228.898438 196.84375 229.066406 196.929688 C 229.585938 197.199219 229.988281 197.5625 230.273438 198.015625 C 230.289062 198.046875 230.3125 198.070312 230.34375 198.089844 C 230.371094 198.109375 230.402344 198.125 230.4375 198.128906 C 230.472656 198.136719 230.507812 198.136719 230.539062 198.128906 C 230.574219 198.121094 230.605469 198.105469 230.632812 198.085938 C 230.929688 197.863281 231.140625 197.59375 231.269531 197.273438 C 231.304688 197.175781 231.277344 197.105469 231.1875 197.058594 C 230.738281 196.832031 230.425781 196.460938 230.253906 195.957031 C 230.210938 195.832031 230.128906 195.742188 230.007812 195.6875 C 229.828125 195.609375 229.652344 195.527344 229.480469 195.449219 C 228.871094 195.179688 228.402344 194.617188 227.847656 194.246094 C 226.824219 193.5625 225.777344 191.757812 226.128906 190.503906 C 226.160156 190.402344 226.21875 190.320312 226.308594 190.265625 C 226.5625 190.113281 226.632812 189.90625 226.523438 189.652344 C 226.484375 189.566406 226.488281 189.484375 226.53125 189.40625 C 226.867188 188.769531 227.261719 188.257812 227.722656 187.859375 C 227.824219 187.773438 227.875 187.664062 227.878906 187.53125 C 227.882812 187.414062 227.851562 187.304688 227.78125 187.203125 C 227.753906 187.160156 227.742188 187.113281 227.75 187.066406 C 227.757812 187.019531 227.78125 186.972656 227.820312 186.945312 C 228.21875 186.621094 228.734375 186.359375 229.261719 186.5625 C 230.308594 186.964844 231.386719 186.996094 232.417969 187.402344 C 233.660156 187.890625 234.519531 188.128906 234.996094 188.121094 C 237.488281 188.074219 239.878906 188.355469 242.167969 188.96875 C 242.804688 189.140625 243.761719 189.609375 244.230469 190.167969 C 244.800781 190.847656 245.421875 191.570312 246.09375 192.339844 C 246.363281 192.648438 246.5625 193.03125 246.695312 193.480469 C 247.148438 195.03125 247.363281 196.1875 246.804688 197.863281 C 246.699219 198.183594 246.5 198.425781 246.214844 198.597656 C 245.105469 199.253906 243.78125 199.53125 242.25 199.425781 C 242.203125 199.421875 242.15625 199.433594 242.113281 199.453125 C 242.066406 199.472656 242.027344 199.5 242 199.539062 C 241.96875 199.578125 241.949219 199.621094 241.941406 199.667969 C 241.929688 199.714844 241.933594 199.765625 241.945312 199.8125 C 242.136719 200.433594 242.101562 201.039062 242.339844 201.644531 C 243.035156 203.414062 243.863281 205.660156 243.511719 207.546875 C 243.410156 208.09375 243.296875 208.640625 243.175781 209.1875 C 243 209.976562 243.421875 210.65625 243.464844 211.453125 C 243.511719 212.375 243.285156 213.25 242.792969 214.070312 C 242.730469 214.171875 242.703125 214.285156 242.707031 214.40625 C 242.746094 215.699219 242.566406 216.902344 242.160156 218.007812 C 241.800781 218.984375 240.867188 219.617188 239.875 219.894531 C 238.167969 220.375 235.777344 220.640625 234.003906 220.011719 C 233.195312 219.726562 232.300781 219.703125 231.578125 219.226562 C 230.683594 218.640625 229.695312 218.328125 228.785156 217.792969 C 228.164062 217.433594 227.53125 217.109375 226.890625 216.820312 C 225.757812 216.3125 224.710938 215.597656 223.570312 215.003906 C 222.84375 214.625 222.085938 214.109375 221.300781 213.449219 C 219.648438 212.070312 218.125 210.75 216.726562 209.480469 C 216.347656 209.136719 215.945312 208.832031 215.519531 208.5625 C 215.425781 208.503906 215.320312 208.484375 215.210938 208.507812 C 214.789062 208.59375 214.101562 208.867188 213.753906 208.5 C 213.039062 207.746094 211.855469 207.933594 210.964844 208.210938 C 210.136719 208.472656 209.257812 208.621094 208.324219 208.652344 C 206.996094 208.703125 205.808594 209.132812 204.757812 209.949219 C 204.679688 210.007812 204.613281 210 204.558594 209.917969 C 204.101562 209.238281 203.710938 208.503906 203.386719 207.71875 C 203.035156 206.863281 202.539062 206.476562 201.796875 206.011719 C 201.089844 205.566406 200.628906 204.84375 199.933594 204.359375 C 199.277344 203.902344 198.554688 203.304688 197.742188 203.164062 C 196.414062 202.941406 195.101562 202.449219 193.808594 201.6875 C 193.480469 201.496094 193.222656 201.5625 193.03125 201.886719 C 192.753906 202.351562 192.566406 202.773438 192.203125 203.207031 C 191.679688 203.835938 191.191406 204.546875 190.738281 205.335938 C 190.480469 205.785156 190.074219 206.074219 189.851562 206.5625 C 189.6875 206.925781 189.480469 207.269531 189.238281 207.589844 C 188.738281 208.253906 188.386719 209.035156 188.042969 209.785156 C 187.652344 210.636719 186.921875 211.28125 186.886719 212.273438 C 186.859375 213.1875 186.847656 214.160156 186.855469 215.191406 C 186.863281 216.050781 187.371094 216.941406 187.160156 217.703125 C 186.910156 218.613281 186.46875 219.253906 185.835938 219.625 C 185.480469 219.839844 185.148438 220.089844 184.847656 220.382812 C 183.214844 221.953125 181.566406 221.480469 179.519531 221.367188 C 179.402344 221.359375 179.300781 221.390625 179.207031 221.457031 C 178.183594 222.183594 177.320312 223.058594 176.613281 224.074219 C 176.207031 224.65625 176.105469 225.21875 175.828125 225.824219 C 175.773438 225.9375 175.765625 226.070312 175.800781 226.191406 L 176.085938 227.144531 C 176.121094 227.261719 176.199219 227.332031 176.316406 227.359375 L 177.238281 227.574219 C 177.339844 227.601562 177.421875 227.65625 177.476562 227.742188 C 177.65625 228.015625 177.738281 228.332031 177.726562 228.703125 C 177.71875 228.839844 177.683594 228.847656 177.613281 228.730469 C 177.5625 228.636719 177.484375 228.601562 177.378906 228.613281 C 177.234375 228.636719 177.21875 228.695312 177.324219 228.792969 C 177.507812 228.957031 177.714844 229.078125 177.945312 229.152344 C 178.117188 229.210938 178.269531 229.320312 178.375 229.464844 C 178.484375 229.609375 178.542969 229.78125 178.550781 229.960938 C 178.570312 230.722656 178.601562 231.574219 179.082031 232.207031 C 179.386719 232.605469 179.433594 233.085938 179.722656 233.511719 C 180.398438 234.488281 180.824219 235.578125 181.394531 236.605469 C 181.714844 237.179688 181.960938 237.855469 182.132812 238.628906 C 182.675781 241.082031 182.636719 243.5625 182.011719 246.058594 C 181.851562 246.703125 181.769531 247.726562 181.773438 249.132812 C 181.773438 249.5625 181.859375 249.992188 182.035156 250.421875 C 182.238281 250.921875 182.3125 251.453125 182.257812 252.019531 C 182.15625 253.070312 183.023438 253.59375 182.675781 254.746094 C 182.492188 255.359375 182.484375 255.996094 182.644531 256.652344 C 182.914062 257.71875 182.058594 258.164062 182.679688 259.335938 C 183.335938 260.554688 183.683594 261.582031 183.722656 262.40625 C 183.777344 263.460938 183.671875 264.699219 184.710938 265.363281 C 184.847656 265.449219 184.949219 265.582031 185.003906 265.734375 C 185.292969 266.585938 185.867188 267.164062 186.132812 268.027344 C 186.363281 268.789062 186.527344 269.539062 186.621094 270.28125 C 186.648438 270.488281 186.6875 270.492188 186.738281 270.289062 C 187.238281 268.289062 187.839844 266.378906 188.808594 264.507812 C 189.09375 263.949219 189.550781 263.632812 189.847656 263.117188 C 190.226562 262.453125 190.75 262.214844 191.199219 261.660156 C 191.382812 261.4375 191.589844 261.238281 191.824219 261.074219 C 192.628906 260.511719 193.449219 260.003906 194.289062 259.554688 C 196.34375 258.460938 198.519531 257.914062 200.824219 257.917969 C 201.058594 257.917969 201.289062 257.941406 201.515625 257.984375 C 201.75 258.03125 202.003906 258.066406 202.269531 258.089844 C 203.300781 258.183594 204.035156 258.339844 204.46875 258.5625 C 205.238281 258.949219 205.960938 259.25 206.636719 259.46875 C 207.164062 259.636719 207.5625 260.328125 208.136719 260.609375 C 208.519531 260.796875 208.839844 260.832031 209.191406 261.089844 C 210.082031 261.746094 210.765625 262.441406 211.238281 263.171875 C 211.394531 263.421875 211.578125 263.648438 211.78125 263.847656 C 212.117188 264.1875 212.183594 264.707031 212.457031 265.09375 C 212.949219 265.792969 213.3125 266.542969 213.542969 267.339844 C 214.34375 270.097656 214.371094 272.828125 213.621094 275.535156 C 212.929688 278.023438 211.582031 280.15625 209.578125 281.9375 C 208.933594 282.511719 208.15625 283.050781 207.25 283.5625 C 206.351562 284.0625 205.558594 284.429688 204.871094 284.65625 C 204.179688 284.886719 203.308594 285.0625 202.253906 285.1875 C 199.867188 285.464844 197.398438 285.148438 195.195312 284.335938 C 194.546875 284.09375 194.097656 283.664062 193.484375 283.40625 C 193.140625 283.265625 192.847656 283.050781 192.605469 282.765625 C 192.214844 282.3125 191.601562 282.164062 191.1875 281.703125 C 190.464844 280.90625 189.773438 280.097656 189.117188 279.269531 C 188.734375 278.785156 188.394531 278.214844 188.101562 277.550781 C 187.792969 276.851562 187.484375 276.125 187.167969 275.375 C 186.992188 274.945312 186.960938 274.550781 186.824219 274.117188 C 186.78125 273.976562 186.71875 273.96875 186.644531 274.097656 C 186.125 274.976562 185.050781 275.367188 184.128906 275.691406 C 183.972656 275.746094 183.875 275.851562 183.835938 276.011719 L 183.746094 276.363281 C 183.71875 276.472656 183.652344 276.542969 183.542969 276.574219 C 183.019531 276.730469 182.574219 276.703125 182.199219 276.492188 C 181.761719 276.253906 181.183594 276.292969 180.832031 276.65625 C 180.734375 276.753906 180.621094 276.800781 180.484375 276.796875 L 179.335938 276.765625 C 179.257812 276.765625 179.183594 276.738281 179.125 276.691406 C 179.0625 276.640625 179.019531 276.574219 179 276.5 C 178.878906 276.003906 178.550781 275.753906 178.015625 275.753906 C 176.238281 275.757812 174.378906 275.773438 172.425781 275.808594 C 171.296875 275.828125 170.4375 276.390625 169.351562 276.527344 C 167.8125 276.722656 166.304688 276.621094 164.828125 276.222656 C 162.8125 275.675781 161.046875 275.003906 159.535156 274.195312 C 158.871094 273.835938 158.199219 273.460938 157.519531 273.0625 C 157.078125 272.804688 156.691406 272.503906 156.367188 272.164062 C 155.160156 270.890625 153.808594 270.003906 154.367188 267.953125 C 154.527344 267.371094 154.960938 267.078125 155.214844 266.546875 C 155.882812 265.171875 159.699219 264.964844 160.785156 265.007812 C 162.660156 265.074219 164.523438 264.890625 166.421875 265.039062 C 166.945312 265.078125 167.3125 264.796875 167.820312 264.84375 C 168.234375 264.878906 168.269531 264.773438 167.933594 264.535156 C 167.71875 264.382812 167.542969 264.203125 167.410156 263.992188 C 167.304688 263.828125 167.339844 263.789062 167.519531 263.867188 C 167.988281 264.074219 168.417969 264.3125 168.8125 264.589844 C 168.894531 264.644531 168.996094 264.671875 169.097656 264.667969 L 170.992188 264.574219 C 171.046875 264.574219 171.101562 264.558594 171.148438 264.535156 C 171.195312 264.511719 171.238281 264.480469 171.277344 264.4375 L 172.386719 263.175781 C 172.53125 263.015625 172.625 262.832031 172.675781 262.621094 C 172.738281 262.382812 172.875 262.203125 173.089844 262.082031 C 173.128906 262.058594 173.164062 262.027344 173.191406 261.992188 C 173.335938 261.78125 173.347656 261.652344 173.21875 261.609375 C 173.195312 261.601562 173.175781 261.585938 173.160156 261.570312 C 173.144531 261.554688 173.132812 261.535156 173.125 261.515625 C 172.921875 260.96875 172.710938 260.429688 172.492188 259.902344 C 172.421875 259.722656 172.304688 259.582031 172.148438 259.484375 C 171.351562 258.976562 170.855469 257.996094 170.910156 257.082031 C 170.933594 256.746094 170.878906 256.417969 170.75 256.09375 C 170.707031 255.988281 170.703125 255.878906 170.734375 255.769531 C 170.890625 255.292969 170.878906 254.820312 170.703125 254.355469 C 170.402344 253.582031 170.066406 252.84375 169.6875 252.148438 C 169.042969 250.960938 168.492188 249.742188 167.933594 248.503906 C 167.710938 248.011719 167.507812 247.503906 167.316406 246.980469 C 167.046875 246.238281 166.753906 245.503906 166.445312 244.777344 C 165.960938 243.648438 165.742188 242.285156 165.398438 241.304688 C 164.898438 239.871094 164.476562 238.371094 164.132812 236.800781 C 163.859375 235.535156 164.152344 234.289062 163.542969 233.085938 C 163.210938 232.429688 162.542969 231.582031 162.980469 230.835938 C 163.03125 230.753906 163.03125 230.667969 162.984375 230.578125 C 162.492188 229.632812 161.839844 228.839844 161.363281 227.894531 C 160.453125 226.09375 159.796875 224.664062 160.011719 222.535156 C 160.117188 221.5 160.226562 220.4375 160.339844 219.355469 C 160.410156 218.695312 160.367188 218.054688 160.210938 217.429688 C 159.960938 216.425781 159.703125 215.507812 159.4375 214.664062 C 159.332031 214.332031 159.285156 213.984375 159.296875 213.625 C 159.324219 212.667969 158.894531 211.882812 159.101562 210.90625 C 159.210938 210.40625 159.230469 209.863281 159.152344 209.289062 C 159.136719 209.148438 159.167969 209.011719 159.246094 208.894531 C 159.710938 208.175781 159.585938 207.199219 159.476562 206.390625 C 159.34375 205.375 159.738281 204.078125 160.144531 203.175781 C 160.675781 202.003906 160.976562 200.742188 161.285156 199.5 C 161.496094 198.648438 162.054688 197.859375 162.550781 197.167969 C 162.886719 196.703125 162.847656 196.136719 162.921875 195.597656 C 163.03125 194.832031 163.425781 194.214844 164.105469 193.746094 C 164.152344 193.710938 164.191406 193.671875 164.222656 193.621094 C 164.25 193.574219 164.269531 193.519531 164.277344 193.460938 C 164.28125 193.40625 164.277344 193.347656 164.261719 193.296875 C 164.246094 193.242188 164.214844 193.191406 164.179688 193.148438 C 163.726562 192.640625 163.085938 192.421875 162.78125 191.8125 C 162.53125 191.308594 162.378906 190.804688 162.320312 190.300781 C 162.226562 189.523438 161.671875 189.191406 161.503906 188.488281 C 161.078125 186.714844 160.84375 185.28125 160.796875 184.1875 C 160.679688 181.558594 160.660156 178.917969 160.738281 176.277344 C 160.777344 175.007812 161.097656 173.660156 161.699219 172.230469 C 161.894531 171.765625 161.984375 171.296875 161.96875 170.832031 C 161.914062 169.191406 162.117188 167.507812 161.808594 165.910156 C 161.625 164.957031 161.914062 163.945312 161.507812 163.0625 C 160.734375 161.378906 160.273438 159.589844 160.128906 157.691406 C 160.058594 156.742188 159.921875 155.828125 159.714844 154.945312 C 159.332031 153.308594 159.132812 151.75 159.175781 150.082031 C 159.191406 149.457031 159.125 148.800781 158.980469 148.113281 C 158.566406 146.183594 158.335938 144.835938 158.277344 144.078125 C 158.089844 141.628906 157.976562 139.121094 157.945312 136.546875 C 157.941406 136.429688 157.914062 136.3125 157.859375 136.207031 C 157.800781 136.101562 157.722656 136.011719 157.625 135.945312 C 157.527344 135.875 157.417969 135.832031 157.300781 135.816406 C 157.183594 135.796875 157.0625 135.808594 156.953125 135.847656 C 155.058594 136.496094 152.710938 136.429688 150.726562 136.367188 C 149.988281 136.34375 149.292969 135.773438 148.527344 135.628906 C 147.980469 135.527344 147.417969 135.382812 146.84375 135.195312 C 145.585938 134.777344 144.730469 134.054688 143.65625 133.410156 C 143.089844 133.074219 142.574219 132.589844 142.09375 132.125 C 141.945312 131.980469 141.753906 131.898438 141.546875 131.882812 C 141.339844 131.871094 141.136719 131.933594 140.972656 132.054688 L 140.277344 132.582031 C 140.167969 132.664062 140.042969 132.710938 139.90625 132.726562 C 139.324219 132.78125 138.894531 132.710938 138.355469 133.039062 C 137.574219 133.515625 136.890625 134.089844 136.308594 134.769531 C 136.234375 134.851562 136.140625 134.910156 136.035156 134.9375 C 135.929688 134.960938 135.816406 134.953125 135.71875 134.914062 C 135.179688 134.695312 135.179688 134.066406 135.425781 133.621094 C 135.820312 132.914062 136.183594 132.25 136.515625 131.628906 C 136.523438 131.617188 136.527344 131.601562 136.527344 131.589844 C 136.527344 131.574219 136.523438 131.5625 136.515625 131.550781 C 136.507812 131.539062 136.5 131.53125 136.488281 131.523438 C 136.476562 131.519531 136.464844 131.515625 136.449219 131.515625 C 134.953125 131.535156 134.558594 132.726562 133.449219 133.375 C 132.796875 133.757812 131.539062 135.53125 130.667969 134.710938 C 130.546875 134.59375 130.46875 134.433594 130.453125 134.265625 C 130.4375 134.097656 130.484375 133.929688 130.585938 133.792969 C 130.710938 133.621094 130.855469 133.464844 131.015625 133.332031 C 131.355469 133.046875 131.253906 132.554688 130.984375 132.277344 C 130.941406 132.234375 130.890625 132.203125 130.835938 132.183594 C 130.777344 132.164062 130.714844 132.160156 130.65625 132.171875 C 130.597656 132.183594 130.542969 132.210938 130.496094 132.25 C 130.453125 132.285156 130.414062 132.335938 130.394531 132.390625 C 130.25 132.75 130.078125 133.066406 129.882812 133.335938 C 129.515625 133.835938 128.921875 133.796875 128.441406 134.152344 C 128.328125 134.234375 128.226562 134.222656 128.136719 134.113281 C 127.609375 133.476562 128.390625 132.804688 128.359375 132.09375 C 128.308594 130.824219 128.152344 129.507812 128.996094 128.425781 C 129.679688 127.550781 130.367188 126.730469 131.050781 125.964844 C 131.652344 125.285156 132.464844 125.101562 133.355469 125.21875 C 134.378906 125.351562 135.542969 125.40625 136.839844 125.375 C 136.949219 125.375 137.046875 125.335938 137.125 125.257812 C 137.964844 124.476562 138.726562 124.484375 139.714844 124.210938 C 140.804688 123.910156 142.152344 124.128906 143.222656 124.34375 C 143.570312 124.410156 143.921875 124.402344 144.273438 124.308594 C 145.109375 124.089844 145.851562 124.359375 146.699219 124.324219 C 148.492188 124.253906 150.214844 124 151.871094 123.566406 C 152.289062 123.457031 152.734375 123.457031 153.207031 123.566406 C 154.070312 123.773438 154.941406 123.8125 155.800781 123.875 C 155.90625 123.882812 156 123.859375 156.089844 123.804688 C 157.035156 123.21875 157.140625 121.945312 157.972656 121.222656 C 158.507812 120.757812 159.007812 120.253906 159.480469 119.710938 C 159.824219 119.3125 159.921875 118.804688 160.261719 118.382812 C 160.65625 117.90625 160.988281 117.378906 161.257812 116.8125 C 161.546875 116.21875 162.339844 115.195312 163.070312 115.21875 C 163.183594 115.222656 163.292969 115.199219 163.398438 115.148438 L 165.394531 114.179688 C 165.515625 114.121094 165.542969 114.03125 165.480469 113.914062 C 164.953125 112.902344 164.519531 111.882812 164.183594 110.855469 C 163.632812 109.175781 161.867188 108.453125 161.316406 106.832031 C 160.882812 105.550781 160.480469 104.339844 160.109375 103.203125 C 159.941406 102.675781 159.660156 102.125 159.25 101.75 C 158.835938 101.371094 158.546875 100.910156 158.386719 100.367188 C 158.164062 99.617188 157.851562 98.949219 157.453125 98.367188 C 157.171875 97.960938 157.222656 97.628906 157.3125 97.183594 C 157.335938 97.074219 157.324219 96.96875 157.28125 96.867188 C 156.992188 96.183594 156.714844 95.515625 156.441406 94.863281 C 156.195312 94.285156 156.171875 93.652344 155.839844 93.140625 C 155.378906 92.4375 155.84375 91.742188 155.789062 90.992188 C 155.730469 90.179688 155.515625 89.238281 156.039062 88.535156 C 156.25 88.25 156.242188 87.867188 156.039062 87.582031 C 155.980469 87.503906 155.945312 87.410156 155.933594 87.316406 C 155.921875 87.21875 155.933594 87.121094 155.96875 87.03125 C 156.320312 86.128906 156.710938 85.152344 157.140625 84.105469 C 157.398438 83.476562 157.769531 83.09375 158.253906 82.957031 C 159.144531 82.707031 159.800781 82.074219 160.332031 81.28125 C 160.394531 81.183594 160.476562 81.167969 160.574219 81.230469 C 161.304688 81.699219 161.851562 80.855469 162.386719 80.484375 C 162.539062 80.375 162.625 80.414062 162.640625 80.605469 C 162.644531 80.65625 162.65625 80.703125 162.675781 80.746094 C 162.738281 80.886719 162.839844 80.921875 162.976562 80.855469 C 163.445312 80.625 163.84375 80.304688 164.367188 80.195312 C 165.011719 80.058594 165.613281 79.796875 166.171875 79.410156 C 166.265625 79.339844 166.382812 79.304688 166.5 79.308594 L 167.972656 79.324219 C 168.085938 79.324219 168.195312 79.300781 168.300781 79.257812 C 168.523438 79.15625 168.738281 79.15625 168.945312 79.257812 C 169.050781 79.3125 169.160156 79.308594 169.265625 79.253906 C 169.878906 78.914062 170.398438 78.46875 170.820312 77.914062 C 170.832031 77.898438 170.84375 77.898438 170.855469 77.910156 L 170.9375 77.964844 C 170.984375 77.996094 170.988281 78.035156 170.949219 78.074219 L 169.722656 79.378906 C 169.683594 79.417969 169.652344 79.472656 169.640625 79.53125 C 169.625 79.585938 169.628906 79.648438 169.644531 79.703125 C 169.660156 79.761719 169.691406 79.8125 169.734375 79.855469 C 169.777344 79.898438 169.828125 79.929688 169.886719 79.945312 C 171.082031 80.265625 172.121094 80.671875 172.996094 81.167969 C 174.136719 81.8125 174.835938 83.269531 175.226562 84.511719 C 175.394531 85.058594 175.691406 85.535156 176.113281 85.945312 C 176.507812 86.332031 176.371094 86.785156 176.613281 87.230469 C 177.355469 88.601562 177.996094 90.90625 177.265625 92.398438 C 177.199219 92.535156 177.234375 92.574219 177.371094 92.515625 Z M 177.371094 92.515625 " fill-opacity="1" fill-rule="nonzero"/></g></svg>