<svg xmlns="http://www.w3.org/2000/svg" xmlns:xlink="http://www.w3.org/1999/xlink" width="500" zoomAndPan="magnify" viewBox="0 0 375 374.999991" height="500" preserveAspectRatio="xMidYMid meet" version="1.0"><defs><clipPath id="35490c0af1"><path d="M 2.199219 59.476562 L 372.699219 59.476562 L 372.699219 315.226562 L 2.199219 315.226562 Z M 2.199219 59.476562 " clip-rule="nonzero"/></clipPath><clipPath id="7aab514eaa"><path d="M 259.34375 250.21875 L 324.648438 250.21875 L 324.648438 315.523438 L 259.34375 315.523438 Z M 259.34375 250.21875 " clip-rule="nonzero"/></clipPath><clipPath id="22da9aef7f"><path d="M 291.996094 250.21875 C 273.960938 250.21875 259.34375 264.835938 259.34375 282.871094 C 259.34375 300.90625 273.960938 315.523438 291.996094 315.523438 C 310.03125 315.523438 324.648438 300.90625 324.648438 282.871094 C 324.648438 264.835938 310.03125 250.21875 291.996094 250.21875 Z M 291.996094 250.21875 " clip-rule="nonzero"/></clipPath></defs><g clip-path="url(#35490c0af1)"><path fill="#000000" d="M 230.914062 59.609375 C 230.382812 59.703125 229.316406 59.847656 228.546875 59.9375 C 225.230469 60.351562 222.78125 60.714844 222.148438 60.90625 C 221.082031 61.226562 216.953125 63.699219 216.035156 64.574219 C 215.019531 65.527344 212.847656 69.125 211.613281 71.808594 C 210.804688 73.609375 210.722656 73.925781 210.703125 75.378906 C 210.675781 76.265625 210.789062 78.257812 210.949219 79.832031 C 211.105469 81.410156 211.261719 83.125 211.316406 83.679688 C 211.367188 84.210938 211.558594 86.4375 211.730469 88.605469 C 211.921875 90.773438 212.125 93.789062 212.164062 95.304688 C 212.265625 98.457031 212.835938 108.644531 212.996094 110.003906 C 213.066406 110.734375 213.296875 111.148438 214.152344 112.144531 C 214.738281 112.820312 215.203125 113.535156 215.199219 113.691406 C 215.195312 114.007812 215.402344 114.796875 215.859375 116.121094 C 216.070312 116.753906 216.488281 118.136719 216.960938 119.875 C 217.054688 120.253906 217.339844 121.082031 217.589844 121.714844 C 217.835938 122.347656 218.046875 123 218.042969 123.160156 C 218.042969 123.316406 218.25 123.96875 218.519531 124.621094 C 218.789062 125.253906 219.015625 126.0625 219.03125 126.398438 C 219.082031 127.050781 218.921875 127.144531 216.410156 128.003906 C 215.914062 128.15625 215.203125 128.402344 214.828125 128.535156 C 214.453125 128.648438 213.460938 128.992188 212.648438 129.296875 C 211.839844 129.582031 210.492188 130.039062 209.683594 130.324219 C 208.871094 130.613281 207.523438 131.066406 206.714844 131.355469 C 204.042969 132.308594 203.863281 132.363281 202.558594 132.703125 C 201.847656 132.890625 200.523438 133.308594 199.589844 133.652344 C 198.660156 133.976562 196.445312 134.71875 194.644531 135.269531 C 190.867188 136.445312 187.839844 137.414062 185.761719 138.117188 C 183.902344 138.746094 181.214844 139.304688 178.828125 139.511719 C 177.800781 139.617188 176.164062 139.816406 175.175781 139.960938 C 170.5 140.636719 169.351562 140.777344 168.445312 140.769531 C 167.304688 140.753906 160.691406 139.988281 159.214844 139.675781 C 158.6875 139.570312 157.308594 139.378906 156.167969 139.246094 C 152.488281 138.828125 152.132812 138.785156 151.445312 138.597656 C 151.070312 138.496094 149.613281 138.300781 148.199219 138.167969 C 146.800781 138.03125 144.929688 137.773438 144.066406 137.585938 C 143.101562 137.378906 141.449219 137.222656 139.832031 137.203125 C 137.25 137.152344 137.132812 137.171875 135.886719 137.746094 C 135.171875 138.074219 134.417969 138.417969 134.199219 138.496094 C 132.65625 139.066406 130.835938 139.695312 128.363281 140.53125 C 126.78125 141.066406 124.425781 141.863281 123.117188 142.320312 C 121.8125 142.757812 119.359375 143.597656 117.675781 144.167969 C 115.996094 144.738281 113.859375 145.460938 112.929688 145.785156 C 112 146.109375 110.355469 146.582031 109.269531 146.863281 C 105.136719 147.917969 103.871094 148.355469 101.75 149.433594 C 100.5625 150.03125 98.460938 151.089844 97.089844 151.78125 C 90.964844 154.878906 90.984375 154.878906 87.492188 158.421875 C 85.539062 160.429688 84.5625 161.261719 83.3125 161.996094 C 81.328125 163.15625 80.75 163.71875 80.101562 165.1875 C 79.273438 166.988281 76.320312 175.085938 76.3125 175.558594 C 76.3125 175.796875 76.59375 176.765625 76.957031 177.695312 C 77.648438 179.515625 78.027344 180.582031 78.730469 182.714844 C 78.980469 183.488281 79.476562 184.636719 79.824219 185.289062 C 80.191406 185.964844 80.941406 187.566406 81.476562 188.871094 C 82.035156 190.179688 82.628906 191.425781 82.785156 191.664062 L 83.09375 192.082031 L 84.046875 191.503906 C 84.566406 191.171875 85.003906 190.824219 85.003906 190.726562 C 85.003906 190.609375 84.789062 188.953125 84.515625 187.058594 C 84.242188 185.144531 84.03125 183.074219 84.035156 182.445312 L 84.03125 181.300781 L 85.625 179.804688 C 86.5 178.988281 87.957031 177.6875 88.832031 176.949219 C 89.726562 176.191406 91.859375 174.363281 93.570312 172.867188 C 95.304688 171.375 96.777344 170.128906 96.875 170.09375 C 97.09375 170.015625 97.691406 171.203125 98.109375 172.527344 C 98.46875 173.714844 98.363281 174.402344 97.378906 177.441406 C 96.4375 180.367188 96.121094 182.09375 96.113281 184.613281 C 96.09375 187.960938 96.242188 188.730469 97.191406 189.90625 C 98.105469 191.019531 98.164062 191.273438 97.601562 191.957031 C 97.382812 192.230469 97.121094 192.660156 97 192.914062 C 96.878906 193.167969 96.535156 193.777344 96.214844 194.265625 C 95.59375 195.203125 93.179688 199.210938 92.253906 200.8125 C 91.953125 201.34375 91.511719 202.105469 91.25 202.496094 C 91.007812 202.886719 90.347656 203.980469 89.800781 204.941406 C 88.113281 207.914062 87.832031 208.382812 86.5625 210.453125 C 85.882812 211.570312 85.335938 212.507812 85.335938 212.566406 C 85.335938 212.605469 84.953125 213.230469 84.492188 213.957031 C 84.050781 214.699219 83.445312 215.753906 83.164062 216.339844 C 82.882812 216.929688 82.355469 217.90625 82.015625 218.496094 C 81.652344 219.101562 80.667969 220.78125 79.804688 222.230469 C 78.9375 223.675781 77.351562 226.355469 76.285156 228.195312 C 75.199219 230.011719 73.871094 232.261719 73.328125 233.179688 C 72.785156 234.097656 71.757812 235.898438 71.054688 237.191406 C 70.347656 238.480469 69.222656 240.457031 68.539062 241.589844 C 63.652344 249.683594 63.613281 249.78125 63.957031 250.75 C 64.050781 251.046875 64.296875 251.820312 64.46875 252.472656 C 64.65625 253.121094 64.960938 254.089844 65.152344 254.644531 C 65.855469 256.679688 65.835938 256.800781 64.722656 257.632812 C 64.1875 258.039062 63.390625 258.601562 62.953125 258.890625 C 62.199219 259.414062 62.179688 259.433594 62.042969 260.929688 C 61.953125 261.753906 61.878906 263.113281 61.871094 263.921875 L 61.851562 265.417969 L 60.507812 267.371094 C 59.746094 268.445312 58.726562 269.75 58.226562 270.296875 C 57.1875 271.40625 53.351562 274.175781 45.722656 279.363281 C 44.132812 280.449219 41.867188 282.035156 40.65625 282.90625 C 39.464844 283.78125 38.210938 284.613281 37.875 284.785156 C 37.003906 285.246094 31.433594 287.820312 31.316406 287.820312 C 31.257812 287.820312 30.703125 288.046875 30.085938 288.316406 C 26.71875 289.8125 24.542969 290.4375 20.734375 290.964844 C 19.609375 291.109375 16.746094 291.605469 14.375 292.070312 C 10.839844 292.738281 9.65625 292.878906 7.941406 292.859375 L 5.832031 292.835938 L 5.234375 293.457031 C 4.175781 294.570312 2.773438 296.460938 2.648438 296.992188 C 2.484375 297.601562 3.011719 299.851562 3.4375 300.328125 C 3.59375 300.507812 4.140625 300.828125 4.652344 301.011719 C 5.140625 301.195312 6.300781 301.664062 7.222656 302.027344 C 11.320312 303.652344 11.480469 303.671875 17.644531 303.882812 C 20.738281 304 24.066406 304.136719 25.03125 304.1875 C 29.699219 304.476562 44.027344 304.648438 48.480469 304.464844 C 54.773438 304.203125 56.882812 304.089844 58.105469 303.984375 C 58.675781 303.933594 61.003906 303.824219 63.273438 303.75 C 65.558594 303.660156 70.390625 303.460938 74.019531 303.289062 C 77.648438 303.113281 81.351562 302.980469 82.242188 302.992188 C 83.304688 303.003906 83.917969 302.929688 84.015625 302.753906 C 84.097656 302.636719 84.460938 301.816406 84.785156 300.953125 C 85.132812 300.089844 85.496094 299.386719 85.613281 299.386719 C 85.730469 299.386719 86.414062 300.066406 87.152344 300.882812 C 87.871094 301.699219 88.902344 302.871094 89.449219 303.46875 C 91.761719 306.09375 92.523438 306.792969 93.347656 307.058594 C 93.796875 307.203125 94.800781 307.589844 95.585938 307.894531 C 96.347656 308.21875 97.09375 308.480469 97.214844 308.484375 C 97.332031 308.484375 98.097656 308.75 98.882812 309.074219 C 100.882812 309.90625 102.0625 310.097656 111.570312 311.132812 C 112.867188 311.265625 115.996094 311.617188 117.375 311.792969 C 117.925781 311.859375 118.890625 312.046875 119.539062 312.191406 C 120.1875 312.355469 122.3125 312.738281 124.257812 313.035156 C 126.207031 313.332031 128.722656 313.757812 129.863281 313.988281 C 134.464844 314.867188 136.53125 315.246094 136.925781 315.25 C 137.496094 315.257812 138.429688 314.777344 139.460938 313.960938 C 139.921875 313.59375 140.734375 313.171875 141.246094 313.019531 C 142.117188 312.773438 142.394531 312.777344 144.359375 313.191406 C 147.503906 313.820312 148.804688 313.777344 153.921875 312.8125 C 159.710938 311.738281 162.273438 311.472656 170.183594 311.113281 C 171.996094 311.019531 173.554688 310.917969 173.632812 310.859375 C 173.714844 310.820312 174.9375 310.738281 176.335938 310.675781 C 178.25 310.617188 180.339844 310.308594 184.707031 309.511719 C 187.90625 308.921875 190.988281 308.367188 191.519531 308.3125 C 192.585938 308.167969 198.214844 307.152344 204.0625 306 C 206.3125 305.574219 208.601562 305.265625 210.023438 305.183594 C 211.285156 305.140625 213.199219 304.984375 214.285156 304.859375 C 216.101562 304.644531 216.335938 304.570312 217.550781 303.71875 C 218.285156 303.234375 218.960938 302.828125 219.058594 302.828125 C 219.273438 302.832031 220.613281 301.292969 222.535156 298.792969 C 223.375 297.703125 224.15625 296.765625 224.273438 296.6875 C 224.375 296.628906 225.011719 295.871094 225.671875 295.011719 C 226.972656 293.351562 227.230469 293.238281 228.308594 293.800781 C 228.640625 293.984375 229.761719 294.429688 230.800781 294.796875 C 231.820312 295.164062 233.371094 295.789062 234.253906 296.175781 C 235.136719 296.558594 237.019531 297.25 238.472656 297.722656 C 239.925781 298.171875 241.90625 298.824219 242.871094 299.171875 C 244.085938 299.597656 245.441406 299.890625 247.234375 300.109375 C 248.652344 300.261719 251.40625 300.75 253.332031 301.164062 C 256.890625 301.9375 258.503906 302.054688 259.4375 301.550781 C 259.714844 301.417969 260.078125 300.652344 260.609375 299.046875 C 261.039062 297.769531 261.546875 296.261719 261.75 295.691406 C 261.976562 295.144531 262.300781 294.203125 262.523438 293.632812 C 262.726562 293.085938 263.09375 292.046875 263.320312 291.339844 C 263.953125 289.457031 268.234375 277.476562 270.371094 271.632812 C 271.023438 269.90625 272.105469 266.867188 272.816406 264.867188 C 273.53125 262.867188 274.773438 259.4375 275.566406 257.222656 C 276.363281 255.003906 277.421875 252.003906 277.914062 250.554688 C 278.402344 249.101562 279.054688 247.277344 279.359375 246.535156 C 279.664062 245.769531 280.296875 244.003906 280.785156 242.613281 C 281.273438 241.199219 282.191406 238.652344 282.824219 236.925781 C 284.328125 232.90625 286.488281 226.867188 288.019531 222.515625 C 288.691406 220.632812 289.609375 218.0625 290.078125 216.828125 C 290.523438 215.59375 291.035156 214.183594 291.179688 213.691406 C 291.566406 212.4375 292.078125 211.023438 292.625 209.710938 C 292.886719 209.085938 293.113281 208.4375 293.113281 208.28125 C 293.117188 208.121094 293.195312 208.003906 293.273438 208.003906 C 293.570312 208.007812 295.726562 210.59375 296.191406 211.503906 C 296.304688 211.742188 296.394531 212.414062 296.390625 213.023438 C 296.351562 214.558594 296.503906 215.113281 297.578125 217.371094 C 298.808594 219.925781 299.605469 221.117188 301.546875 223.363281 C 303.433594 225.550781 303.839844 226.324219 304.285156 228.632812 C 304.621094 230.351562 305.097656 231.539062 306.179688 233.304688 C 306.742188 234.214844 306.703125 234.214844 309.109375 233.871094 C 310.175781 233.722656 310.230469 234.058594 309.902344 238.605469 C 309.625 242.261719 309.636719 242.855469 309.984375 246.699219 C 310.195312 248.964844 310.609375 252.160156 310.90625 253.796875 C 311.90625 259.265625 313.132812 265.363281 313.605469 267.277344 C 314.28125 270.101562 315.300781 275.507812 315.734375 278.761719 C 317.203125 289.570312 318.382812 294.941406 320.058594 298.308594 C 320.460938 299.121094 321.097656 300.46875 321.460938 301.296875 C 322.402344 303.394531 322.773438 303.773438 324.574219 304.664062 C 326.476562 305.589844 326.574219 305.613281 329.191406 305.800781 C 330.316406 305.871094 331.871094 306.027344 332.636719 306.136719 C 333.40625 306.242188 334.644531 306.355469 335.375 306.363281 C 336.105469 306.375 338.898438 306.625 341.574219 306.929688 C 344.253906 307.238281 346.929688 307.542969 347.519531 307.609375 C 348.109375 307.675781 350.078125 307.898438 351.890625 308.113281 C 353.71875 308.3125 355.273438 308.449219 355.375 308.390625 C 355.671875 308.199219 356.992188 306.601562 356.996094 306.402344 C 356.996094 306.304688 356.644531 305.984375 356.214844 305.703125 C 355.472656 305.203125 355.238281 304.769531 355.597656 304.554688 C 355.695312 304.496094 357.53125 304.382812 359.699219 304.308594 C 361.847656 304.214844 364.371094 304.105469 365.300781 304.058594 C 366.226562 304.03125 368.199219 303.957031 369.695312 303.894531 L 372.398438 303.789062 L 372.40625 303.058594 C 372.414062 302.371094 372.355469 302.292969 371.453125 301.886719 C 370.925781 301.664062 370.394531 301.460938 370.296875 301.460938 C 370.199219 301.457031 369.726562 301.238281 369.257812 300.976562 C 368.789062 300.695312 367.335938 300.007812 366.042969 299.441406 C 364.75 298.855469 363.554688 298.269531 363.398438 298.128906 C 363.242188 297.96875 362.085938 297.40625 360.832031 296.839844 C 358.304688 295.6875 357.832031 295.621094 355.265625 296.046875 C 349.023438 297.054688 348.433594 297.066406 344.265625 296.25 C 342.984375 296.019531 340.941406 295.621094 339.742188 295.390625 C 336.574219 294.78125 335.632812 294.496094 334.183594 293.652344 C 332.421875 292.644531 331.625 291.769531 331.285156 290.503906 C 331.113281 289.871094 330.945312 287.566406 330.863281 284.554688 C 330.777344 281.835938 330.652344 279 330.621094 278.25 C 330.589844 277.480469 330.511719 275.847656 330.46875 274.605469 C 330.261719 268.519531 330.082031 264.007812 329.933594 261.503906 C 329.832031 259.988281 329.691406 256.972656 329.617188 254.804688 C 329.523438 252.640625 329.429688 250.6875 329.390625 250.472656 C 329.355469 250.253906 329.277344 248.617188 329.21875 246.828125 C 329.179688 245.035156 329.101562 243.261719 329.066406 242.886719 C 328.945312 241.605469 328.816406 239.242188 328.742188 237.074219 C 328.699219 235.871094 328.601562 234.058594 328.535156 233.035156 C 328.300781 229.429688 328.410156 228.367188 329.140625 226.859375 L 329.804688 225.527344 L 328.742188 222.011719 C 327.226562 217.03125 326.875 215.097656 327.078125 212.835938 C 327.214844 211.0625 327.21875 211.003906 326.527344 209.382812 C 326.144531 208.472656 325.839844 207.621094 325.839844 207.484375 C 325.84375 207.1875 324.15625 203.054688 323.90625 202.734375 C 323.789062 202.597656 323.316406 202.433594 322.84375 202.347656 C 322.351562 202.285156 321.960938 202.199219 321.960938 202.179688 C 321.941406 202.042969 320.5625 195.273438 320.191406 193.554688 C 319.945312 192.410156 319.496094 190.59375 319.152344 189.507812 C 318.261719 186.523438 317.996094 185.632812 316.21875 179.429688 C 315.839844 178.125 315.253906 176.03125 314.894531 174.785156 C 313.835938 170.972656 312.882812 168.007812 312.421875 167.039062 C 312.171875 166.523438 311.339844 165.371094 310.582031 164.457031 C 308.558594 162.011719 308.386719 161.554688 308.574219 159.175781 C 308.664062 158.09375 308.699219 156.914062 308.625 156.539062 C 308.496094 155.808594 307.078125 153.839844 304.203125 150.402344 C 302.277344 148.09375 302.042969 147.933594 298.867188 146.734375 C 296.921875 145.984375 296.238281 145.699219 294.316406 144.789062 C 291.730469 143.558594 288.21875 142.101562 285.824219 141.246094 C 280.585938 139.371094 280.269531 139.230469 278.082031 137.726562 C 277.339844 137.207031 275.65625 136.125 274.363281 135.320312 C 271.390625 133.453125 270.003906 132.414062 266.257812 129.121094 C 261.96875 125.367188 259.125 122.441406 258.742188 121.414062 C 258.457031 120.679688 258.460938 120.226562 258.710938 117.574219 C 258.847656 115.921875 259.125 114.171875 259.289062 113.679688 C 259.511719 113.09375 260.132812 112.273438 261.148438 111.242188 C 262.625 109.742188 263.988281 107.886719 264.972656 106.066406 C 265.398438 105.285156 265.460938 104.933594 265.488281 102.726562 L 265.515625 100.265625 L 264.683594 98.839844 C 263.546875 96.914062 263.394531 96.261719 263.691406 94.433594 C 264.054688 92.273438 264.519531 89.503906 264.878906 87.300781 C 265.070312 86.242188 265.164062 84.921875 265.113281 84.351562 C 265.058594 83.777344 264.871094 81.53125 264.679688 79.324219 C 264.488281 77.136719 264.277344 75.085938 264.199219 74.789062 C 263.976562 73.84375 262.449219 71.324219 260.796875 69.195312 C 260 68.164062 254.59375 63.789062 252.324219 62.34375 C 251.875 62.042969 250.148438 61.332031 248.5 60.742188 L 245.496094 59.683594 L 238.699219 59.5625 C 234.957031 59.5 231.46875 59.519531 230.914062 59.609375 Z M 115.515625 162.140625 C 115.652344 162.277344 115.386719 162.828125 114.746094 163.765625 C 114.222656 164.546875 113.34375 165.855469 112.78125 166.695312 C 112.238281 167.515625 111.4375 168.648438 111.035156 169.195312 C 110.617188 169.761719 110.273438 170.289062 110.273438 170.386719 C 110.269531 170.605469 109.695312 170.832031 109.5 170.695312 C 109.402344 170.652344 109.300781 169.429688 109.238281 167.992188 C 109.195312 166.554688 109.101562 164.566406 109.050781 163.578125 L 108.9375 161.785156 L 112.148438 161.863281 C 113.921875 161.925781 115.417969 162.039062 115.515625 162.140625 Z M 152.074219 165.308594 C 152.488281 165.488281 153.152344 165.8125 153.585938 166.015625 C 154.015625 166.214844 156 166.710938 158.007812 167.128906 C 160.011719 167.546875 162.664062 168.109375 163.902344 168.378906 C 181.417969 172.152344 181.929688 172.234375 186.171875 171.8125 C 190.515625 171.390625 194.011719 170.605469 199.453125 168.859375 C 200.460938 168.515625 200.636719 168.519531 200.890625 168.777344 C 201.339844 169.234375 202.125 172.886719 201.882812 173.355469 C 201.660156 173.808594 200.703125 176.453125 200.515625 177.121094 C 200.433594 177.457031 200.742188 178.089844 201.691406 179.496094 C 202.40625 180.570312 203.164062 181.660156 203.359375 181.941406 C 204.113281 182.933594 204.625 186.367188 204.910156 192.394531 C 205.257812 199.566406 205.140625 201.160156 203.703125 209.414062 C 202.984375 213.636719 202.914062 214.464844 203.039062 217.398438 L 203.164062 220.039062 L 204.878906 221.574219 C 205.816406 222.433594 206.675781 223.132812 206.792969 223.132812 C 206.890625 223.136719 207.382812 223.457031 207.871094 223.835938 C 208.378906 224.214844 208.847656 224.535156 208.945312 224.539062 C 209.023438 224.539062 209.257812 224.71875 209.433594 224.917969 C 209.628906 225.136719 210.078125 225.457031 210.449219 225.636719 C 210.839844 225.820312 211.09375 226.078125 211.054688 226.195312 C 210.972656 226.433594 210.398438 226.5625 205.480469 227.351562 C 203.863281 227.609375 202.164062 227.902344 201.730469 228.015625 C 201.296875 228.128906 200.625 228.277344 200.246094 228.355469 C 199.871094 228.449219 199.023438 228.652344 198.390625 228.84375 C 196.628906 229.335938 195.269531 229.28125 193.5625 228.609375 C 192.191406 228.082031 192.050781 228.058594 190.808594 228.261719 C 190.097656 228.390625 189.40625 228.519531 189.269531 228.539062 C 189.148438 228.578125 188.550781 229.21875 187.929688 229.980469 C 186.691406 231.503906 186.828125 231.445312 184.449219 231.140625 C 182.972656 230.964844 182.558594 231.039062 181.25 231.714844 C 181.050781 231.808594 180.773438 231.886719 180.597656 231.882812 C 180.300781 231.878906 179.53125 230.375 179.535156 229.824219 C 179.539062 229.664062 179.460938 229.488281 179.363281 229.40625 C 179.265625 229.347656 179.113281 229.03125 179.058594 228.675781 C 178.90625 228.042969 177.933594 225.316406 177.605469 224.71875 C 177.511719 224.523438 177.433594 224.226562 177.4375 224.066406 C 177.4375 223.890625 177.246094 223.375 177.015625 222.921875 C 176.804688 222.464844 176.558594 221.8125 176.460938 221.496094 C 176.386719 221.160156 176.140625 220.410156 175.890625 219.816406 C 175.660156 219.222656 175.242188 218.09375 174.953125 217.34375 C 174.667969 216.574219 174.152344 215.285156 173.824219 214.476562 C 173.5 213.664062 173.234375 212.855469 173.234375 212.675781 C 173.238281 212.5 173.082031 212.144531 172.871094 211.886719 C 172.675781 211.625 171.847656 209.941406 171.023438 208.140625 C 170.195312 206.339844 169.386719 204.65625 169.195312 204.378906 C 169 204.101562 168.367188 202.8125 167.769531 201.507812 C 167.175781 200.199219 166.308594 198.554688 165.84375 197.839844 C 164.566406 195.855469 161.953125 191.671875 160.019531 188.519531 C 159.789062 188.140625 159.109375 187.070312 158.53125 186.136719 C 157.949219 185.207031 157.15625 183.957031 156.789062 183.359375 C 155.125 180.683594 152.648438 176.953125 151.308594 175.125 C 150.515625 174.03125 149.507812 172.601562 149.078125 171.96875 C 148.652344 171.3125 148.128906 170.675781 147.914062 170.515625 C 147.699219 170.355469 147.523438 170.117188 147.527344 169.980469 C 147.527344 169.84375 147.316406 169.523438 147.042969 169.265625 C 146.769531 169.003906 146.554688 168.707031 146.558594 168.609375 C 146.558594 168.511719 146.25 168.054688 145.878906 167.597656 C 145.21875 166.761719 145.046875 166.210938 145.367188 166.015625 C 145.445312 165.976562 146.273438 166.105469 147.175781 166.3125 L 148.828125 166.707031 L 149.542969 166.144531 C 149.941406 165.832031 150.398438 165.445312 150.539062 165.269531 C 150.859375 164.898438 151.191406 164.902344 152.074219 165.308594 Z M 128.960938 210.226562 C 129.035156 210.601562 129.179688 211.566406 129.289062 212.375 C 129.578125 214.742188 130.074219 217.5625 131.0625 222.539062 C 131.226562 223.40625 131.640625 225.046875 131.984375 226.191406 C 132.324219 227.335938 132.933594 229.332031 133.3125 230.636719 C 133.691406 231.941406 134.296875 233.976562 134.636719 235.183594 C 135.242188 237.238281 135.601562 238.5 137.359375 244.960938 C 138.019531 247.410156 139.238281 251.226562 139.660156 252.175781 C 139.753906 252.394531 140.097656 253.421875 140.441406 254.449219 C 140.992188 256.167969 141.664062 257.730469 142.78125 259.890625 C 142.992188 260.328125 143.28125 260.902344 143.375 261.160156 C 143.78125 262.070312 146.148438 266.824219 146.554688 267.515625 C 147.09375 268.410156 147.785156 269.914062 147.6875 269.972656 C 147.667969 270.011719 146.777344 270.136719 145.753906 270.265625 C 133.320312 271.710938 132.945312 271.765625 131.695312 272.460938 C 131.117188 272.789062 129.75 273.480469 128.660156 274.019531 C 127.589844 274.558594 126.378906 275.234375 125.980469 275.523438 C 125.226562 276.085938 124.96875 276.261719 122.902344 277.613281 C 122.148438 278.117188 121.015625 278.910156 120.417969 279.359375 C 119.164062 280.308594 118.890625 280.34375 117.890625 279.742188 C 117.207031 279.359375 117.089844 279.140625 116.519531 277.285156 C 115.855469 275.167969 115.664062 274.890625 113.886719 273.511719 C 112.207031 272.210938 111.832031 272.03125 110.632812 271.839844 C 109.945312 271.710938 108.863281 271.523438 108.234375 271.417969 C 106.957031 271.183594 106.796875 271.203125 100.398438 272.367188 C 99.589844 272.515625 98.523438 272.699219 98.027344 272.753906 C 97.535156 272.828125 96.210938 273.066406 95.066406 273.308594 C 93.921875 273.53125 92.378906 273.789062 91.628906 273.859375 L 90.289062 273.980469 L 90.359375 272.917969 C 90.40625 272.347656 90.339844 271.265625 90.191406 270.535156 C 89.949219 269.234375 89.953125 269.132812 90.414062 268.273438 C 90.898438 267.292969 92.203125 265.320312 93.203125 264.011719 C 93.523438 263.5625 93.804688 263.113281 93.808594 262.996094 C 93.808594 262.878906 94.109375 262.585938 94.464844 262.355469 C 95.898438 261.347656 98.167969 259.425781 98.886719 258.566406 C 99.304688 258.058594 100.207031 256.851562 100.886719 255.875 C 101.550781 254.894531 102.652344 253.375 103.292969 252.496094 C 103.953125 251.617188 104.816406 250.445312 105.195312 249.898438 C 105.578125 249.351562 106.15625 248.570312 106.457031 248.179688 C 107.578125 246.738281 109.246094 244.175781 109.648438 243.296875 C 109.890625 242.804688 110.578125 241.554688 111.179688 240.535156 C 112.347656 238.5625 112.75 237.839844 113.4375 236.410156 C 113.679688 235.917969 113.980469 235.351562 114.101562 235.136719 C 114.90625 233.828125 116.859375 230.34375 117.121094 229.757812 C 117.304688 229.386719 117.746094 228.582031 118.085938 227.996094 C 118.449219 227.410156 119.757812 224.984375 120.988281 222.617188 C 122.238281 220.246094 123.386719 218.035156 123.550781 217.722656 C 123.730469 217.390625 124.621094 215.628906 125.527344 213.808594 C 127.101562 210.65625 128.082031 209.308594 128.632812 209.492188 C 128.730469 209.515625 128.886719 209.851562 128.960938 210.226562 Z M 128.960938 210.226562 " fill-opacity="1" fill-rule="nonzero"/></g><g clip-path="url(#7aab514eaa)"><g clip-path="url(#22da9aef7f)"><path fill="#000000" d="M 259.34375 250.21875 L 324.648438 250.21875 L 324.648438 315.523438 L 259.34375 315.523438 Z M 259.34375 250.21875 " fill-opacity="1" fill-rule="nonzero"/></g></g></svg>