<svg xmlns="http://www.w3.org/2000/svg" xmlns:xlink="http://www.w3.org/1999/xlink" width="500" zoomAndPan="magnify" viewBox="0 0 375 374.999991" height="500" preserveAspectRatio="xMidYMid meet" version="1.0"><defs><clipPath id="dba2ca7360"><path d="M 2.199219 59.476562 L 372.699219 59.476562 L 372.699219 315.226562 L 2.199219 315.226562 Z M 2.199219 59.476562 " clip-rule="nonzero"/></clipPath><clipPath id="e9bce40678"><path d="M 259.34375 250.21875 L 324.648438 250.21875 L 324.648438 315.523438 L 259.34375 315.523438 Z M 259.34375 250.21875 " clip-rule="nonzero"/></clipPath><clipPath id="af3c556ddd"><path d="M 291.996094 250.21875 C 273.960938 250.21875 259.34375 264.835938 259.34375 282.871094 C 259.34375 300.90625 273.960938 315.523438 291.996094 315.523438 C 310.03125 315.523438 324.648438 300.90625 324.648438 282.871094 C 324.648438 264.835938 310.03125 250.21875 291.996094 250.21875 Z M 291.996094 250.21875 " clip-rule="nonzero"/></clipPath></defs><g clip-path="url(#dba2ca7360)"><path fill="#e0e0e0" d="M 230.972656 59.609375 C 230.4375 59.703125 229.371094 59.847656 228.601562 59.9375 C 225.285156 60.351562 222.835938 60.71875 222.203125 60.90625 C 221.136719 61.230469 217.007812 63.703125 216.089844 64.582031 C 215.074219 65.535156 212.902344 69.136719 211.667969 71.820312 C 210.855469 73.625 210.773438 73.941406 210.757812 75.398438 C 210.726562 76.285156 210.839844 78.277344 211 79.855469 C 211.160156 81.4375 211.316406 83.152344 211.367188 83.707031 C 211.421875 84.238281 211.613281 86.46875 211.785156 88.640625 C 211.976562 90.808594 212.175781 93.828125 212.21875 95.347656 C 212.320312 98.5 212.886719 108.699219 213.050781 110.0625 C 213.121094 110.792969 213.351562 111.210938 214.207031 112.203125 C 214.789062 112.882812 215.253906 113.597656 215.253906 113.753906 C 215.25 114.070312 215.457031 114.863281 215.914062 116.1875 C 216.125 116.820312 216.542969 118.207031 217.011719 119.945312 C 217.109375 120.320312 217.394531 121.152344 217.640625 121.785156 C 217.890625 122.421875 218.101562 123.074219 218.097656 123.230469 C 218.097656 123.390625 218.304688 124.042969 218.574219 124.695312 C 218.84375 125.328125 219.070312 126.140625 219.085938 126.476562 C 219.136719 127.128906 218.976562 127.222656 216.464844 128.082031 C 215.96875 128.234375 215.257812 128.480469 214.882812 128.613281 C 214.503906 128.726562 213.515625 129.070312 212.703125 129.378906 C 211.890625 129.664062 210.546875 130.121094 209.734375 130.40625 C 208.921875 130.691406 207.578125 131.148438 206.765625 131.4375 C 204.09375 132.390625 203.914062 132.449219 202.609375 132.785156 C 201.898438 132.976562 200.570312 133.394531 199.640625 133.738281 C 198.710938 134.0625 196.496094 134.804688 194.695312 135.355469 C 190.914062 136.53125 187.886719 137.503906 185.808594 138.207031 C 183.949219 138.835938 181.261719 139.394531 178.875 139.605469 C 177.847656 139.710938 176.207031 139.90625 175.222656 140.054688 C 170.539062 140.726562 169.394531 140.871094 168.488281 140.863281 C 167.347656 140.847656 160.730469 140.082031 159.257812 139.765625 C 158.726562 139.664062 157.347656 139.46875 156.207031 139.335938 C 152.523438 138.917969 152.171875 138.875 151.480469 138.691406 C 151.109375 138.585938 149.652344 138.390625 148.234375 138.257812 C 146.835938 138.121094 144.96875 137.863281 144.101562 137.675781 C 143.136719 137.46875 141.484375 137.308594 139.867188 137.292969 C 137.285156 137.242188 137.167969 137.257812 135.917969 137.835938 C 135.207031 138.164062 134.453125 138.507812 134.234375 138.585938 C 132.691406 139.160156 130.867188 139.789062 128.394531 140.625 C 126.8125 141.160156 124.457031 141.960938 123.148438 142.417969 C 121.84375 142.855469 119.390625 143.691406 117.707031 144.265625 C 116.023438 144.835938 113.886719 145.558594 112.957031 145.882812 C 112.027344 146.207031 110.382812 146.683594 109.296875 146.964844 C 105.164062 148.019531 103.898438 148.457031 101.773438 149.539062 C 100.585938 150.136719 98.484375 151.195312 97.113281 151.886719 C 90.988281 154.988281 91.007812 154.988281 87.515625 158.535156 C 85.558594 160.542969 84.582031 161.378906 83.332031 162.113281 C 81.347656 163.273438 80.769531 163.839844 80.121094 165.308594 C 79.292969 167.113281 76.339844 175.21875 76.332031 175.691406 C 76.328125 175.929688 76.613281 176.898438 76.976562 177.828125 C 77.664062 179.652344 78.046875 180.71875 78.75 182.859375 C 79 183.628906 79.496094 184.777344 79.84375 185.433594 C 80.210938 186.109375 80.960938 187.714844 81.496094 189.019531 C 82.054688 190.328125 82.652344 191.578125 82.804688 191.816406 L 83.117188 192.234375 L 84.070312 191.652344 C 84.585938 191.324219 85.023438 190.976562 85.023438 190.875 C 85.027344 190.757812 84.808594 189.097656 84.535156 187.203125 C 84.261719 185.289062 84.050781 183.214844 84.058594 182.585938 L 84.050781 181.441406 L 85.644531 179.941406 C 86.523438 179.125 87.976562 177.820312 88.855469 177.082031 C 89.75 176.324219 91.878906 174.496094 93.59375 173 C 95.328125 171.5 96.800781 170.257812 96.898438 170.21875 C 97.117188 170.140625 97.714844 171.332031 98.132812 172.65625 C 98.492188 173.84375 98.386719 174.535156 97.402344 177.578125 C 96.460938 180.503906 96.144531 182.234375 96.136719 184.757812 C 96.117188 188.109375 96.265625 188.878906 97.21875 190.054688 C 98.128906 191.167969 98.1875 191.425781 97.625 192.109375 C 97.40625 192.382812 97.144531 192.8125 97.023438 193.066406 C 96.902344 193.324219 96.558594 193.929688 96.238281 194.417969 C 95.617188 195.359375 93.203125 199.371094 92.277344 200.976562 C 91.976562 201.503906 91.535156 202.269531 91.273438 202.660156 C 91.03125 203.050781 90.367188 204.148438 89.824219 205.105469 C 88.132812 208.082031 87.851562 208.554688 86.585938 210.628906 C 85.902344 211.742188 85.359375 212.683594 85.359375 212.742188 C 85.359375 212.78125 84.976562 213.40625 84.515625 214.132812 C 84.070312 214.875 83.46875 215.933594 83.183594 216.519531 C 82.902344 217.109375 82.378906 218.089844 82.035156 218.675781 C 81.671875 219.28125 80.6875 220.96875 79.824219 222.414062 C 78.957031 223.863281 77.371094 226.546875 76.300781 228.386719 C 75.214844 230.207031 73.890625 232.457031 73.347656 233.378906 C 72.804688 234.296875 71.777344 236.101562 71.070312 237.394531 C 70.367188 238.6875 69.238281 240.664062 68.554688 241.800781 C 63.667969 249.902344 63.628906 250 63.972656 250.972656 C 64.066406 251.269531 64.3125 252.039062 64.484375 252.691406 C 64.671875 253.34375 64.976562 254.3125 65.167969 254.867188 C 65.875 256.90625 65.851562 257.023438 64.738281 257.859375 C 64.203125 258.265625 63.40625 258.828125 62.96875 259.121094 C 62.214844 259.644531 62.195312 259.664062 62.058594 261.160156 C 61.96875 261.988281 61.894531 263.347656 61.882812 264.152344 L 61.867188 265.652344 L 60.523438 267.609375 C 59.761719 268.683594 58.742188 269.992188 58.242188 270.539062 C 57.203125 271.648438 53.367188 274.421875 45.734375 279.617188 C 44.144531 280.703125 41.878906 282.292969 40.664062 283.164062 C 39.472656 284.035156 38.222656 284.871094 37.882812 285.042969 C 37.011719 285.507812 31.441406 288.082031 31.324219 288.082031 C 31.261719 288.082031 30.707031 288.308594 30.09375 288.578125 C 26.726562 290.078125 24.550781 290.703125 20.738281 291.226562 C 19.613281 291.371094 16.75 291.871094 14.378906 292.335938 C 10.839844 293.003906 9.65625 293.148438 7.941406 293.128906 L 5.832031 293.101562 L 5.234375 293.726562 C 4.175781 294.839844 2.773438 296.734375 2.648438 297.265625 C 2.484375 297.875 3.011719 300.128906 3.4375 300.605469 C 3.59375 300.785156 4.140625 301.105469 4.652344 301.289062 C 5.144531 301.472656 6.300781 301.941406 7.222656 302.304688 C 11.324219 303.929688 11.480469 303.953125 17.648438 304.164062 C 20.742188 304.277344 24.074219 304.417969 25.039062 304.46875 C 29.707031 304.757812 44.035156 304.929688 48.492188 304.742188 C 54.785156 304.484375 56.894531 304.371094 58.121094 304.265625 C 58.691406 304.214844 61.019531 304.101562 63.289062 304.03125 C 65.574219 303.941406 70.40625 303.742188 74.035156 303.566406 C 77.664062 303.390625 81.375 303.257812 82.261719 303.269531 C 83.324219 303.28125 83.9375 303.210938 84.039062 303.035156 C 84.117188 302.917969 84.480469 302.09375 84.808594 301.230469 C 85.152344 300.367188 85.515625 299.660156 85.632812 299.660156 C 85.753906 299.664062 86.433594 300.339844 87.175781 301.160156 C 87.894531 301.976562 88.925781 303.152344 89.46875 303.75 C 91.785156 306.378906 92.546875 307.078125 93.371094 307.34375 C 93.820312 307.484375 94.824219 307.871094 95.609375 308.175781 C 96.371094 308.5 97.117188 308.765625 97.238281 308.769531 C 97.355469 308.769531 98.121094 309.035156 98.90625 309.359375 C 100.90625 310.191406 102.085938 310.382812 111.597656 311.421875 C 112.894531 311.554688 116.027344 311.90625 117.402344 312.082031 C 117.957031 312.148438 118.917969 312.335938 119.566406 312.480469 C 120.214844 312.648438 122.339844 313.027344 124.289062 313.324219 C 126.238281 313.625 128.753906 314.046875 129.894531 314.277344 C 134.5 315.160156 136.5625 315.539062 136.957031 315.542969 C 137.53125 315.550781 138.460938 315.070312 139.496094 314.253906 C 139.953125 313.882812 140.769531 313.460938 141.28125 313.308594 C 142.152344 313.0625 142.429688 313.066406 144.394531 313.484375 C 147.542969 314.113281 148.84375 314.066406 153.960938 313.105469 C 159.75 312.027344 162.316406 311.761719 170.222656 311.402344 C 172.039062 311.304688 173.597656 311.207031 173.675781 311.148438 C 173.757812 311.109375 174.980469 311.023438 176.378906 310.960938 C 178.292969 310.90625 180.386719 310.597656 184.753906 309.800781 C 187.953125 309.207031 191.035156 308.652344 191.566406 308.597656 C 192.632812 308.453125 198.265625 307.4375 204.113281 306.28125 C 206.367188 305.855469 208.65625 305.546875 210.074219 305.464844 C 211.339844 305.421875 213.253906 305.265625 214.339844 305.140625 C 216.152344 304.925781 216.390625 304.851562 217.605469 303.996094 C 218.339844 303.511719 219.015625 303.105469 219.113281 303.109375 C 219.328125 303.109375 220.667969 301.570312 222.589844 299.066406 C 223.429688 297.972656 224.210938 297.039062 224.332031 296.960938 C 224.429688 296.902344 225.070312 296.140625 225.730469 295.28125 C 227.03125 293.621094 227.289062 293.503906 228.367188 294.070312 C 228.699219 294.25 229.816406 294.699219 230.859375 295.066406 C 231.878906 295.433594 233.429688 296.0625 234.3125 296.445312 C 235.195312 296.832031 237.078125 297.523438 238.53125 297.996094 C 239.984375 298.445312 241.96875 299.097656 242.929688 299.445312 C 244.148438 299.875 245.503906 300.167969 247.296875 300.382812 C 248.714844 300.539062 251.46875 301.023438 253.394531 301.441406 C 256.953125 302.214844 258.570312 302.332031 259.5 301.828125 C 259.777344 301.695312 260.140625 300.929688 260.675781 299.320312 C 261.101562 298.042969 261.613281 296.53125 261.816406 295.960938 C 262.039062 295.414062 262.367188 294.472656 262.589844 293.902344 C 262.792969 293.351562 263.160156 292.3125 263.386719 291.605469 C 264.019531 289.71875 268.300781 277.726562 270.441406 271.875 C 271.089844 270.148438 272.171875 267.105469 272.886719 265.105469 C 273.597656 263.101562 274.84375 259.667969 275.636719 257.449219 C 276.433594 255.230469 277.492188 252.226562 277.984375 250.773438 C 278.472656 249.320312 279.125 247.496094 279.429688 246.75 C 279.734375 245.984375 280.367188 244.214844 280.855469 242.824219 C 281.347656 241.410156 282.261719 238.855469 282.894531 237.128906 C 284.402344 233.105469 286.5625 227.058594 288.089844 222.703125 C 288.765625 220.816406 289.679688 218.246094 290.148438 217.007812 C 290.597656 215.773438 291.105469 214.359375 291.25 213.867188 C 291.640625 212.609375 292.148438 211.199219 292.699219 209.882812 C 292.960938 209.253906 293.1875 208.609375 293.1875 208.449219 C 293.191406 208.292969 293.269531 208.175781 293.347656 208.175781 C 293.644531 208.179688 295.800781 210.769531 296.265625 211.679688 C 296.378906 211.917969 296.46875 212.589844 296.464844 213.199219 C 296.425781 214.738281 296.578125 215.292969 297.652344 217.550781 C 298.886719 220.109375 299.679688 221.300781 301.625 223.550781 C 303.511719 225.742188 303.914062 226.515625 304.363281 228.828125 C 304.695312 230.546875 305.175781 231.734375 306.257812 233.503906 C 306.820312 234.414062 306.78125 234.414062 309.1875 234.070312 C 310.253906 233.921875 310.308594 234.257812 309.980469 238.808594 C 309.699219 242.472656 309.714844 243.0625 310.0625 246.914062 C 310.273438 249.183594 310.6875 252.378906 310.984375 254.019531 C 311.984375 259.492188 313.214844 265.597656 313.683594 267.515625 C 314.359375 270.34375 315.378906 275.757812 315.816406 279.015625 C 317.285156 289.835938 318.460938 295.210938 320.136719 298.582031 C 320.542969 299.394531 321.175781 300.742188 321.542969 301.574219 C 322.484375 303.675781 322.851562 304.054688 324.65625 304.945312 C 326.558594 305.871094 326.65625 305.894531 329.277344 306.082031 C 330.398438 306.15625 331.953125 306.3125 332.722656 306.417969 C 333.488281 306.527344 334.730469 306.640625 335.457031 306.648438 C 336.1875 306.65625 338.984375 306.90625 341.660156 307.214844 C 344.339844 307.519531 347.015625 307.828125 347.609375 307.894531 C 348.199219 307.960938 350.167969 308.179688 351.976562 308.398438 C 353.808594 308.597656 355.363281 308.734375 355.464844 308.675781 C 355.761719 308.484375 357.082031 306.882812 357.085938 306.6875 C 357.085938 306.585938 356.734375 306.269531 356.304688 305.988281 C 355.5625 305.484375 355.328125 305.046875 355.6875 304.835938 C 355.785156 304.777344 357.621094 304.660156 359.789062 304.589844 C 361.941406 304.496094 364.464844 304.386719 365.390625 304.339844 C 366.316406 304.3125 368.289062 304.234375 369.789062 304.175781 L 372.492188 304.066406 L 372.5 303.339844 C 372.507812 302.648438 372.449219 302.570312 371.546875 302.164062 C 371.019531 301.941406 370.488281 301.738281 370.390625 301.738281 C 370.292969 301.734375 369.820312 301.511719 369.351562 301.25 C 368.882812 300.96875 367.429688 300.28125 366.136719 299.714844 C 364.839844 299.128906 363.644531 298.542969 363.488281 298.402344 C 363.335938 298.242188 362.179688 297.675781 360.921875 297.109375 C 358.394531 295.957031 357.921875 295.894531 355.351562 296.316406 C 349.113281 297.328125 348.519531 297.339844 344.351562 296.519531 C 343.070312 296.289062 341.027344 295.890625 339.828125 295.660156 C 336.660156 295.050781 335.71875 294.765625 334.269531 293.917969 C 332.507812 292.914062 331.707031 292.035156 331.367188 290.769531 C 331.199219 290.136719 331.027344 287.828125 330.945312 284.8125 C 330.859375 282.089844 330.734375 279.25 330.703125 278.5 C 330.675781 277.730469 330.59375 276.09375 330.550781 274.851562 C 330.347656 268.757812 330.164062 264.242188 330.015625 261.734375 C 329.914062 260.214844 329.773438 257.199219 329.699219 255.03125 C 329.605469 252.859375 329.511719 250.90625 329.476562 250.691406 C 329.4375 250.472656 329.359375 248.835938 329.300781 247.039062 C 329.261719 245.246094 329.1875 243.472656 329.152344 243.097656 C 329.027344 241.8125 328.898438 239.445312 328.824219 237.277344 C 328.78125 236.074219 328.683594 234.257812 328.617188 233.234375 C 328.382812 229.625 328.492188 228.558594 329.222656 227.050781 L 329.886719 225.71875 L 328.824219 222.195312 C 327.308594 217.210938 326.957031 215.273438 327.160156 213.011719 C 327.296875 211.238281 327.300781 211.179688 326.609375 209.554688 C 326.226562 208.640625 325.917969 207.792969 325.921875 207.652344 C 325.925781 207.359375 324.238281 203.21875 323.988281 202.898438 C 323.871094 202.757812 323.398438 202.597656 322.925781 202.511719 C 322.433594 202.445312 322.042969 202.363281 322.042969 202.34375 C 322.023438 202.207031 320.644531 195.429688 320.269531 193.707031 C 320.027344 192.5625 319.574219 190.742188 319.234375 189.65625 C 318.34375 186.667969 318.078125 185.777344 316.296875 179.566406 C 315.917969 178.261719 315.332031 176.164062 314.972656 174.917969 C 313.914062 171.101562 312.960938 168.132812 312.5 167.160156 C 312.25 166.644531 311.417969 165.492188 310.660156 164.578125 C 308.636719 162.128906 308.464844 161.671875 308.652344 159.289062 C 308.742188 158.207031 308.777344 157.023438 308.703125 156.648438 C 308.574219 155.917969 307.15625 153.949219 304.28125 150.503906 C 302.355469 148.195312 302.121094 148.035156 298.941406 146.835938 C 297 146.082031 296.3125 145.796875 294.390625 144.886719 C 291.800781 143.65625 288.292969 142.195312 285.894531 141.339844 C 280.65625 139.464844 280.339844 139.320312 278.152344 137.816406 C 277.40625 137.296875 275.726562 136.210938 274.433594 135.40625 C 271.460938 133.539062 270.070312 132.5 266.324219 129.203125 C 262.035156 125.445312 259.191406 122.511719 258.808594 121.484375 C 258.519531 120.75 258.527344 120.296875 258.773438 117.640625 C 258.910156 115.984375 259.1875 114.234375 259.351562 113.742188 C 259.574219 113.152344 260.195312 112.332031 261.214844 111.300781 C 262.691406 109.800781 264.054688 107.941406 265.039062 106.121094 C 265.464844 105.339844 265.527344 104.984375 265.554688 102.777344 L 265.582031 100.3125 L 264.75 98.882812 C 263.609375 96.957031 263.460938 96.304688 263.757812 94.476562 C 264.121094 92.3125 264.585938 89.539062 264.945312 87.332031 C 265.136719 86.269531 265.230469 84.953125 265.179688 84.378906 C 265.125 83.808594 264.9375 81.558594 264.746094 79.347656 C 264.554688 77.15625 264.339844 75.105469 264.265625 74.808594 C 264.042969 73.859375 262.511719 71.335938 260.863281 69.207031 C 260.066406 68.171875 254.65625 63.792969 252.386719 62.347656 C 251.9375 62.046875 250.210938 61.335938 248.5625 60.746094 L 245.558594 59.683594 L 238.757812 59.5625 C 235.015625 59.5 231.523438 59.519531 230.972656 59.609375 Z M 115.542969 162.257812 C 115.679688 162.398438 115.417969 162.945312 114.773438 163.882812 C 114.253906 164.667969 113.371094 165.976562 112.808594 166.820312 C 112.265625 167.640625 111.464844 168.773438 111.0625 169.320312 C 110.644531 169.886719 110.300781 170.417969 110.300781 170.515625 C 110.296875 170.730469 109.722656 170.960938 109.527344 170.820312 C 109.429688 170.78125 109.324219 169.558594 109.265625 168.117188 C 109.222656 166.675781 109.128906 164.683594 109.078125 163.699219 L 108.964844 161.902344 L 112.175781 161.980469 C 113.949219 162.042969 115.445312 162.15625 115.542969 162.257812 Z M 152.113281 165.429688 C 152.523438 165.609375 153.191406 165.933594 153.621094 166.136719 C 154.054688 166.339844 156.039062 166.835938 158.046875 167.253906 C 160.050781 167.671875 162.707031 168.234375 163.945312 168.503906 C 181.464844 172.28125 181.976562 172.363281 186.21875 171.941406 C 190.5625 171.519531 194.058594 170.734375 199.5 168.984375 C 200.511719 168.640625 200.6875 168.644531 200.941406 168.902344 C 201.390625 169.359375 202.175781 173.015625 201.933594 173.488281 C 201.710938 173.9375 200.753906 176.589844 200.566406 177.257812 C 200.484375 177.589844 200.792969 178.226562 201.742188 179.636719 C 202.457031 180.707031 203.214844 181.800781 203.410156 182.078125 C 204.164062 183.074219 204.675781 186.511719 204.960938 192.546875 C 205.308594 199.726562 205.191406 201.320312 203.753906 209.585938 C 203.035156 213.8125 202.964844 214.640625 203.089844 217.578125 L 203.214844 220.222656 L 204.933594 221.761719 C 205.867188 222.621094 206.726562 223.320312 206.84375 223.320312 C 206.945312 223.324219 207.433594 223.644531 207.921875 224.023438 C 208.429688 224.40625 208.898438 224.726562 208.996094 224.726562 C 209.074219 224.726562 209.308594 224.90625 209.484375 225.105469 C 209.679688 225.324219 210.128906 225.648438 210.503906 225.828125 C 210.894531 226.011719 211.148438 226.269531 211.105469 226.386719 C 211.023438 226.625 210.453125 226.753906 205.535156 227.542969 C 203.914062 227.800781 202.214844 228.097656 201.78125 228.210938 C 201.34375 228.324219 200.671875 228.472656 200.296875 228.546875 C 199.921875 228.640625 199.070312 228.847656 198.4375 229.039062 C 196.679688 229.53125 195.320312 229.472656 193.613281 228.804688 C 192.238281 228.273438 192.101562 228.253906 190.855469 228.457031 C 190.144531 228.585938 189.453125 228.714844 189.316406 228.734375 C 189.195312 228.769531 188.597656 229.414062 187.976562 230.175781 C 186.738281 231.699219 186.875 231.640625 184.496094 231.335938 C 183.019531 231.164062 182.601562 231.238281 181.292969 231.910156 C 181.097656 232.007812 180.820312 232.082031 180.640625 232.082031 C 180.347656 232.078125 179.574219 230.570312 179.582031 230.019531 C 179.582031 229.859375 179.507812 229.683594 179.410156 229.601562 C 179.3125 229.542969 179.15625 229.222656 179.101562 228.867188 C 178.953125 228.238281 177.980469 225.503906 177.652344 224.910156 C 177.554688 224.710938 177.480469 224.414062 177.480469 224.257812 C 177.484375 224.078125 177.292969 223.5625 177.0625 223.109375 C 176.847656 222.652344 176.601562 222 176.507812 221.683594 C 176.429688 221.347656 176.183594 220.59375 175.933594 220 C 175.703125 219.40625 175.285156 218.277344 174.996094 217.523438 C 174.710938 216.753906 174.195312 215.464844 173.867188 214.652344 C 173.542969 213.839844 173.277344 213.03125 173.277344 212.851562 C 173.28125 212.675781 173.128906 212.316406 172.914062 212.058594 C 172.71875 211.800781 171.890625 210.117188 171.066406 208.3125 C 170.238281 206.507812 169.429688 204.824219 169.238281 204.542969 C 169.042969 204.265625 168.40625 202.976562 167.8125 201.667969 C 167.214844 200.359375 166.347656 198.714844 165.882812 198 C 164.605469 196.011719 161.992188 191.824219 160.058594 188.664062 C 159.828125 188.289062 159.152344 187.214844 158.570312 186.28125 C 157.988281 185.347656 157.195312 184.097656 156.828125 183.503906 C 155.164062 180.820312 152.6875 177.085938 151.347656 175.257812 C 150.550781 174.164062 149.542969 172.730469 149.117188 172.097656 C 148.691406 171.441406 148.167969 170.804688 147.953125 170.644531 C 147.738281 170.484375 147.5625 170.242188 147.5625 170.105469 C 147.566406 169.96875 147.351562 169.648438 147.078125 169.390625 C 146.804688 169.132812 146.59375 168.832031 146.59375 168.734375 C 146.59375 168.636719 146.285156 168.179688 145.917969 167.722656 C 145.253906 166.886719 145.085938 166.332031 145.402344 166.136719 C 145.480469 166.097656 146.308594 166.226562 147.210938 166.433594 L 148.863281 166.828125 L 149.582031 166.265625 C 149.976562 165.957031 150.4375 165.566406 150.578125 165.390625 C 150.894531 165.019531 151.230469 165.023438 152.113281 165.429688 Z M 128.992188 210.398438 C 129.066406 210.773438 129.210938 211.742188 129.320312 212.550781 C 129.609375 214.917969 130.109375 217.746094 131.09375 222.722656 C 131.261719 223.59375 131.675781 225.234375 132.015625 226.382812 C 132.359375 227.53125 132.964844 229.527344 133.34375 230.832031 C 133.722656 232.136719 134.328125 234.175781 134.671875 235.382812 C 135.277344 237.441406 135.636719 238.707031 137.394531 245.171875 C 138.054688 247.625 139.269531 251.445312 139.695312 252.394531 C 139.789062 252.613281 140.132812 253.644531 140.476562 254.671875 C 141.027344 256.394531 141.699219 257.957031 142.816406 260.121094 C 143.027344 260.558594 143.316406 261.132812 143.414062 261.390625 C 143.816406 262.300781 146.183594 267.058594 146.589844 267.753906 C 147.132812 268.648438 147.824219 270.15625 147.722656 270.210938 C 147.703125 270.25 146.816406 270.378906 145.789062 270.503906 C 133.351562 271.957031 132.976562 272.011719 131.726562 272.703125 C 131.152344 273.035156 129.78125 273.726562 128.691406 274.265625 C 127.621094 274.804688 126.410156 275.480469 126.011719 275.773438 C 125.257812 276.335938 125 276.507812 122.933594 277.863281 C 122.179688 278.367188 121.046875 279.164062 120.449219 279.609375 C 119.195312 280.5625 118.917969 280.597656 117.921875 279.992188 C 117.234375 279.609375 117.121094 279.394531 116.550781 277.535156 C 115.882812 275.417969 115.691406 275.136719 113.914062 273.757812 C 112.234375 272.457031 111.859375 272.273438 110.660156 272.082031 C 109.972656 271.957031 108.890625 271.765625 108.261719 271.660156 C 106.980469 271.425781 106.824219 271.445312 100.421875 272.613281 C 99.613281 272.761719 98.546875 272.945312 98.054688 273 C 97.558594 273.070312 96.234375 273.3125 95.089844 273.554688 C 93.941406 273.777344 92.402344 274.035156 91.652344 274.105469 L 90.3125 274.226562 L 90.382812 273.164062 C 90.429688 272.59375 90.363281 271.507812 90.214844 270.777344 C 89.972656 269.472656 89.972656 269.375 90.4375 268.511719 C 90.921875 267.53125 92.226562 265.554688 93.226562 264.246094 C 93.546875 263.796875 93.828125 263.347656 93.832031 263.230469 C 93.832031 263.113281 94.132812 262.820312 94.488281 262.585938 C 95.921875 261.578125 98.191406 259.652344 98.910156 258.792969 C 99.332031 258.289062 100.230469 257.074219 100.914062 256.097656 C 101.574219 255.121094 102.675781 253.59375 103.320312 252.714844 C 103.980469 251.835938 104.839844 250.664062 105.222656 250.117188 C 105.601562 249.570312 106.183594 248.789062 106.484375 248.398438 C 107.605469 246.949219 109.273438 244.386719 109.675781 243.503906 C 109.917969 243.015625 110.605469 241.761719 111.207031 240.746094 C 112.375 238.765625 112.777344 238.042969 113.464844 236.613281 C 113.707031 236.121094 114.007812 235.554688 114.128906 235.335938 C 114.933594 234.027344 116.886719 230.539062 117.148438 229.953125 C 117.332031 229.578125 117.773438 228.777344 118.117188 228.191406 C 118.480469 227.601562 119.789062 225.171875 121.019531 222.800781 C 122.269531 220.433594 123.417969 218.21875 123.582031 217.90625 C 123.761719 217.570312 124.648438 215.808594 125.558594 213.984375 C 127.132812 210.828125 128.117188 209.480469 128.664062 209.664062 C 128.761719 209.6875 128.917969 210.023438 128.992188 210.398438 Z M 128.992188 210.398438 " fill-opacity="1" fill-rule="nonzero"/></g><g clip-path="url(#e9bce40678)"><g clip-path="url(#af3c556ddd)"><path fill="#e0e0e0" d="M 259.34375 250.21875 L 324.648438 250.21875 L 324.648438 315.523438 L 259.34375 315.523438 Z M 259.34375 250.21875 " fill-opacity="1" fill-rule="nonzero"/></g></g></svg>