<svg xmlns="http://www.w3.org/2000/svg" xmlns:xlink="http://www.w3.org/1999/xlink" width="1920" zoomAndPan="magnify" viewBox="0 0 1440 374.999991" height="500" preserveAspectRatio="xMidYMid meet" version="1.0"><defs><g/></defs><g fill="#000000" fill-opacity="1"><g transform="translate(18.639766, 256.184639)"><g><path d="M 299.046875 0 L 236.703125 0 L 236.703125 -94.75 L 181 0 L 134.5 0 L 78.90625 -94.75 L 78.90625 0 L 16.5625 0 L 16.5625 -148.59375 L 90.609375 -148.59375 L 157.796875 -42.453125 L 224.90625 -148.59375 L 299.046875 -148.59375 Z M 299.046875 0 "/></g></g></g><g fill="#000000" fill-opacity="1"><g transform="translate(334.216812, 256.184639)"><g><path d="M 78.90625 0 L 16.5625 0 L 16.5625 -148.59375 L 78.90625 -148.59375 Z M 78.90625 0 "/></g></g></g><g fill="#000000" fill-opacity="1"><g transform="translate(429.676796, 256.184639)"><g><path d="M 98.15625 3.203125 C 78.070312 3.203125 61.882812 1.046875 49.59375 -3.265625 C 37.3125 -7.578125 27.957031 -13.507812 21.53125 -21.0625 C 15.113281 -28.625 10.800781 -37.34375 8.59375 -47.21875 L 74.765625 -47.21875 C 79.660156 -40.175781 87.457031 -36.65625 98.15625 -36.65625 C 108.863281 -36.65625 116.664062 -40.175781 121.5625 -47.21875 C 121.976562 -47.90625 122.1875 -48.523438 122.1875 -49.078125 C 122.1875 -50.941406 119.71875 -52.335938 114.78125 -53.265625 C 109.84375 -54.203125 102.472656 -54.910156 92.671875 -55.390625 C 80.316406 -55.941406 67.335938 -57.253906 53.734375 -59.328125 C 23.429688 -64.023438 8.28125 -76.210938 8.28125 -95.890625 C 8.28125 -97.546875 8.382812 -99.304688 8.59375 -101.171875 C 10.800781 -111.035156 15.113281 -119.742188 21.53125 -127.296875 C 27.957031 -134.859375 37.3125 -140.796875 49.59375 -145.109375 C 61.882812 -149.429688 78.070312 -151.59375 98.15625 -151.59375 C 118.25 -151.59375 134.4375 -149.429688 146.71875 -145.109375 C 159.007812 -140.796875 168.363281 -134.859375 174.78125 -127.296875 C 181.207031 -119.742188 185.523438 -111.035156 187.734375 -101.171875 L 121.5625 -101.171875 C 116.664062 -108.203125 108.863281 -111.71875 98.15625 -111.71875 C 87.457031 -111.71875 79.660156 -108.203125 74.765625 -101.171875 C 74.421875 -100.617188 74.25 -100.097656 74.25 -99.609375 C 74.25 -97.953125 76.609375 -96.726562 81.328125 -95.9375 C 86.054688 -95.144531 93.03125 -94.472656 102.25 -93.921875 C 111.46875 -93.367188 121.285156 -92.46875 131.703125 -91.21875 C 142.128906 -89.976562 151.878906 -87.820312 160.953125 -84.75 C 170.035156 -81.675781 177.128906 -77.140625 182.234375 -71.140625 C 186.242188 -66.515625 188.25 -60.644531 188.25 -53.53125 C 188.25 -51.53125 188.078125 -49.425781 187.734375 -47.21875 C 185.523438 -37.34375 181.207031 -28.625 174.78125 -21.0625 C 168.363281 -13.507812 159.007812 -7.578125 146.71875 -3.265625 C 134.4375 1.046875 118.25 3.203125 98.15625 3.203125 Z M 98.15625 3.203125 "/></g></g></g><g fill="#000000" fill-opacity="1"><g transform="translate(626.187697, 256.184639)"><g><path d="M 126.734375 0 L 64.40625 0 L 64.40625 -111.828125 L 6.21875 -111.828125 L 6.21875 -148.59375 L 184.9375 -148.59375 L 184.9375 -111.828125 L 126.734375 -111.828125 Z M 126.734375 0 "/></g></g></g><g fill="#000000" fill-opacity="1"><g transform="translate(817.314741, 256.184639)"><g><path d="M 78.90625 0 L 16.5625 0 L 16.5625 -148.59375 L 78.90625 -148.59375 Z M 78.90625 0 "/></g></g></g><g fill="#000000" fill-opacity="1"><g transform="translate(912.774725, 256.184639)"><g><path d="M 112.34375 3.203125 C 75.625 3.203125 48.597656 -4.351562 31.265625 -19.46875 C 15.941406 -32.789062 8.28125 -51.015625 8.28125 -74.140625 C 8.28125 -97.265625 15.941406 -115.523438 31.265625 -128.921875 C 48.597656 -143.960938 75.625 -151.484375 112.34375 -151.484375 C 133.882812 -151.484375 151.695312 -149.015625 165.78125 -144.078125 C 179.863281 -139.148438 190.800781 -132.40625 198.59375 -123.84375 C 206.394531 -115.28125 211.578125 -105.476562 214.140625 -94.4375 L 148.59375 -94.4375 C 142.03125 -105.957031 129.945312 -111.71875 112.34375 -111.71875 C 97.300781 -111.71875 86.222656 -107.367188 79.109375 -98.671875 C 73.453125 -91.773438 70.625 -83.597656 70.625 -74.140625 C 70.625 -64.679688 73.453125 -56.5 79.109375 -49.59375 C 86.222656 -40.894531 97.300781 -36.546875 112.34375 -36.546875 C 129.945312 -36.546875 142.03125 -42.347656 148.59375 -53.953125 L 214.140625 -53.953125 C 211.578125 -42.835938 206.394531 -33 198.59375 -24.4375 C 190.800781 -15.875 179.863281 -9.125 165.78125 -4.1875 C 151.695312 0.738281 133.882812 3.203125 112.34375 3.203125 Z M 112.34375 3.203125 "/></g></g></g><g fill="#000000" fill-opacity="1"><g transform="translate(1135.169567, 256.184639)"><g><path d="M 249.546875 0 L 186.390625 0 L 172.40625 -24.328125 L 78.6875 -24.328125 L 64.71875 0 L 1.546875 0 L 96.609375 -148.484375 L 154.484375 -148.484375 Z M 151.390625 -61.09375 L 125.59375 -106.140625 L 99.71875 -61.09375 Z M 151.390625 -61.09375 "/></g></g></g><g fill="#000000" fill-opacity="1"><g transform="translate(1386.243873, 256.184639)"><g><path d="M 31.6875 0 L 3.109375 0 L 3.109375 -28.578125 L 31.6875 -28.578125 Z M 31.6875 0 "/></g></g></g></svg>