<svg xmlns="http://www.w3.org/2000/svg" xmlns:xlink="http://www.w3.org/1999/xlink" width="1920" zoomAndPan="magnify" viewBox="0 0 1440 374.999991" height="500" preserveAspectRatio="xMidYMid meet" version="1.0"><defs><g/></defs><g fill="#ffffff" fill-opacity="1"><g transform="translate(18.679704, 254.535697)"><g><path d="M 299.0625 0 L 236.71875 0 L 236.71875 -94.75 L 181.015625 0 L 134.515625 0 L 78.90625 -94.75 L 78.90625 0 L 16.5625 0 L 16.5625 -148.59375 L 90.609375 -148.59375 L 157.8125 -42.453125 L 224.921875 -148.59375 L 299.0625 -148.59375 Z M 299.0625 0 "/></g></g><g transform="translate(334.310638, 254.535697)"><g><path d="M 78.90625 0 L 16.5625 0 L 16.5625 -148.59375 L 78.90625 -148.59375 Z M 60.78125 -161.953125 L 34.6875 -161.953125 L 48.25 -198.828125 L 91.640625 -198.828125 Z M 60.78125 -161.953125 "/></g></g><g transform="translate(429.786925, 254.535697)"><g><path d="M 98.171875 3.203125 C 78.078125 3.203125 61.882812 1.046875 49.59375 -3.265625 C 37.3125 -7.578125 27.957031 -13.507812 21.53125 -21.0625 C 15.113281 -28.625 10.800781 -37.34375 8.59375 -47.21875 L 74.765625 -47.21875 C 79.671875 -40.175781 87.472656 -36.65625 98.171875 -36.65625 C 108.867188 -36.65625 116.671875 -40.175781 121.578125 -47.21875 C 121.984375 -47.90625 122.1875 -48.523438 122.1875 -49.078125 C 122.1875 -50.941406 119.71875 -52.335938 114.78125 -53.265625 C 109.851562 -54.203125 102.488281 -54.914062 92.6875 -55.40625 C 80.320312 -55.957031 67.34375 -57.269531 53.75 -59.34375 C 23.4375 -64.03125 8.28125 -76.210938 8.28125 -95.890625 C 8.28125 -97.546875 8.382812 -99.304688 8.59375 -101.171875 C 10.800781 -111.046875 15.113281 -119.757812 21.53125 -127.3125 C 27.957031 -134.875 37.3125 -140.8125 49.59375 -145.125 C 61.882812 -149.445312 78.078125 -151.609375 98.171875 -151.609375 C 118.253906 -151.609375 134.441406 -149.445312 146.734375 -145.125 C 159.023438 -140.8125 168.378906 -134.875 174.796875 -127.3125 C 181.210938 -119.757812 185.53125 -111.046875 187.75 -101.171875 L 121.578125 -101.171875 C 116.671875 -108.210938 108.867188 -111.734375 98.171875 -111.734375 C 87.472656 -111.734375 79.671875 -108.210938 74.765625 -101.171875 C 74.421875 -100.617188 74.25 -100.101562 74.25 -99.625 C 74.25 -97.96875 76.613281 -96.738281 81.34375 -95.9375 C 86.070312 -95.144531 93.039062 -94.472656 102.25 -93.921875 C 111.46875 -93.367188 121.289062 -92.46875 131.71875 -91.21875 C 142.144531 -89.976562 151.894531 -87.820312 160.96875 -84.75 C 170.050781 -81.6875 177.144531 -77.148438 182.25 -71.140625 C 186.257812 -66.515625 188.265625 -60.644531 188.265625 -53.53125 C 188.265625 -51.53125 188.09375 -49.425781 187.75 -47.21875 C 185.53125 -37.34375 181.210938 -28.625 174.796875 -21.0625 C 168.378906 -13.507812 159.023438 -7.578125 146.734375 -3.265625 C 134.441406 1.046875 118.253906 3.203125 98.171875 3.203125 Z M 98.171875 3.203125 "/></g></g><g transform="translate(626.331384, 254.535697)"><g><path d="M 126.75 0 L 64.40625 0 L 64.40625 -111.84375 L 6.21875 -111.84375 L 6.21875 -148.59375 L 184.953125 -148.59375 L 184.953125 -111.84375 L 126.75 -111.84375 Z M 126.75 0 "/></g></g><g transform="translate(817.491065, 254.535697)"><g><path d="M 78.90625 0 L 16.5625 0 L 16.5625 -148.59375 L 78.90625 -148.59375 Z M 78.90625 0 "/></g></g><g transform="translate(912.967351, 254.535697)"><g><path d="M 112.359375 3.203125 C 75.628906 3.203125 48.597656 -4.351562 31.265625 -19.46875 C 15.941406 -32.789062 8.28125 -51.015625 8.28125 -74.140625 C 8.28125 -97.265625 15.941406 -115.523438 31.265625 -128.921875 C 48.597656 -143.972656 75.628906 -151.5 112.359375 -151.5 C 133.898438 -151.5 151.710938 -149.03125 165.796875 -144.09375 C 179.878906 -139.15625 190.816406 -132.40625 198.609375 -123.84375 C 206.410156 -115.289062 211.59375 -105.488281 214.15625 -94.4375 L 148.59375 -94.4375 C 142.039062 -105.96875 129.960938 -111.734375 112.359375 -111.734375 C 97.304688 -111.734375 86.222656 -107.382812 79.109375 -98.6875 C 73.453125 -91.78125 70.625 -83.597656 70.625 -74.140625 C 70.625 -64.679688 73.453125 -56.503906 79.109375 -49.609375 C 86.222656 -40.898438 97.304688 -36.546875 112.359375 -36.546875 C 129.960938 -36.546875 142.039062 -42.347656 148.59375 -53.953125 L 214.15625 -53.953125 C 211.59375 -42.835938 206.410156 -33 198.609375 -24.4375 C 190.816406 -15.875 179.878906 -9.125 165.796875 -4.1875 C 151.710938 0.738281 133.898438 3.203125 112.359375 3.203125 Z M 112.359375 3.203125 "/></g></g><g transform="translate(1135.400177, 254.535697)"><g><path d="M 249.5625 0 L 186.390625 0 L 172.421875 -24.328125 L 78.703125 -24.328125 L 64.71875 0 L 1.546875 0 L 96.609375 -148.5 L 154.5 -148.5 Z M 151.390625 -61.09375 L 125.609375 -106.140625 L 99.71875 -61.09375 Z M 151.390625 -61.09375 "/></g></g><g transform="translate(1386.517308, 254.535697)"><g><path d="M 31.6875 0 L 3.109375 0 L 3.109375 -28.578125 L 31.6875 -28.578125 Z M 31.6875 0 "/></g></g></g></svg>